<?xml version="1.0" encoding="UTF-8" standalone="no"?>
<!DOCTYPE svg PUBLIC "-//W3C//DTD SVG 1.1//EN"
 "http://www.w3.org/Graphics/SVG/1.1/DTD/svg11.dtd">
<!-- Generated by graphviz version 2.36.0 (20140111.2315)
 -->
<!-- Title: controllers_diagram Pages: 1 -->
<svg width="446pt" height="513pt"
 viewBox="0.00 0.00 446.00 513.00" xmlns="http://www.w3.org/2000/svg" xmlns:xlink="http://www.w3.org/1999/xlink">
<g id="graph0" class="graph" transform="scale(1 1) rotate(0) translate(4 509)">
<title>controllers_diagram</title>
<polygon fill="none" stroke="none" points="-4,4 -4,-509 442,-509 442,4 -4,4"/>
<!-- _diagram_info -->
<g id="node1" class="node"><title>_diagram_info</title>
<text text-anchor="start" x="232" y="-415.6" font-family="Times,serif" font-size="13.00">Controllers diagram</text>
<text text-anchor="start" x="232" y="-401.6" font-family="Times,serif" font-size="13.00">Date: Nov 17 2017 &#45; 13:38</text>
<text text-anchor="start" x="232" y="-387.6" font-family="Times,serif" font-size="13.00">Migration version: 20171116195445</text>
<text text-anchor="start" x="232" y="-373.6" font-family="Times,serif" font-size="13.00">Generated by RailRoady 1.5.3</text>
<text text-anchor="start" x="232" y="-359.6" font-family="Times,serif" font-size="13.00">http://railroady.prestonlee.com</text>
</g>
<!-- ComentarisController -->
<g id="node2" class="node"><title>ComentarisController</title>
<path fill="none" stroke="black" d="M12,-112.5C12,-112.5 123,-112.5 123,-112.5 129,-112.5 135,-118.5 135,-124.5 135,-124.5 135,-283.5 135,-283.5 135,-289.5 129,-295.5 123,-295.5 123,-295.5 12,-295.5 12,-295.5 6,-295.5 0,-289.5 0,-283.5 0,-283.5 0,-124.5 0,-124.5 0,-118.5 6,-112.5 12,-112.5"/>
<text text-anchor="middle" x="67.5" y="-280.3" font-family="Times,serif" font-size="14.00">ComentarisController</text>
<polyline fill="none" stroke="black" points="0,-272.5 135,-272.5 "/>
<text text-anchor="start" x="8" y="-257.3" font-family="Times,serif" font-size="14.00">create</text>
<text text-anchor="start" x="8" y="-242.3" font-family="Times,serif" font-size="14.00">destroy</text>
<text text-anchor="start" x="8" y="-227.3" font-family="Times,serif" font-size="14.00">index</text>
<text text-anchor="start" x="8" y="-212.3" font-family="Times,serif" font-size="14.00">show</text>
<text text-anchor="start" x="8" y="-197.3" font-family="Times,serif" font-size="14.00">update</text>
<polyline fill="none" stroke="black" points="0,-189.5 135,-189.5 "/>
<polyline fill="none" stroke="black" points="0,-165.5 135,-165.5 "/>
<text text-anchor="start" x="8" y="-150.3" font-family="Times,serif" font-size="14.00">check_owner</text>
<text text-anchor="start" x="8" y="-135.3" font-family="Times,serif" font-size="14.00">comentari_params</text>
<text text-anchor="start" x="8" y="-120.3" font-family="Times,serif" font-size="14.00">find_comentari</text>
</g>
<!-- AnuncisController -->
<g id="node3" class="node"><title>AnuncisController</title>
<path fill="none" stroke="black" d="M172,-128.5C172,-128.5 265,-128.5 265,-128.5 271,-128.5 277,-134.5 277,-140.5 277,-140.5 277,-299.5 277,-299.5 277,-305.5 271,-311.5 265,-311.5 265,-311.5 172,-311.5 172,-311.5 166,-311.5 160,-305.5 160,-299.5 160,-299.5 160,-140.5 160,-140.5 160,-134.5 166,-128.5 172,-128.5"/>
<text text-anchor="middle" x="218.5" y="-296.3" font-family="Times,serif" font-size="14.00">AnuncisController</text>
<polyline fill="none" stroke="black" points="160,-288.5 277,-288.5 "/>
<text text-anchor="start" x="168" y="-273.3" font-family="Times,serif" font-size="14.00">create</text>
<text text-anchor="start" x="168" y="-258.3" font-family="Times,serif" font-size="14.00">destroy</text>
<text text-anchor="start" x="168" y="-243.3" font-family="Times,serif" font-size="14.00">index</text>
<text text-anchor="start" x="168" y="-228.3" font-family="Times,serif" font-size="14.00">show</text>
<text text-anchor="start" x="168" y="-213.3" font-family="Times,serif" font-size="14.00">update</text>
<polyline fill="none" stroke="black" points="160,-205.5 277,-205.5 "/>
<polyline fill="none" stroke="black" points="160,-181.5 277,-181.5 "/>
<text text-anchor="start" x="168" y="-166.3" font-family="Times,serif" font-size="14.00">anunci_params</text>
<text text-anchor="start" x="168" y="-151.3" font-family="Times,serif" font-size="14.00">find_anunci</text>
<text text-anchor="start" x="168" y="-136.3" font-family="Times,serif" font-size="14.00">find_user</text>
</g>
<!-- UsersController -->
<g id="node4" class="node"><title>UsersController</title>
<path fill="none" stroke="black" d="M44,-336.5C44,-336.5 123,-336.5 123,-336.5 129,-336.5 135,-342.5 135,-348.5 135,-348.5 135,-492.5 135,-492.5 135,-498.5 129,-504.5 123,-504.5 123,-504.5 44,-504.5 44,-504.5 38,-504.5 32,-498.5 32,-492.5 32,-492.5 32,-348.5 32,-348.5 32,-342.5 38,-336.5 44,-336.5"/>
<text text-anchor="middle" x="83.5" y="-489.3" font-family="Times,serif" font-size="14.00">UsersController</text>
<polyline fill="none" stroke="black" points="32,-481.5 135,-481.5 "/>
<text text-anchor="start" x="40" y="-466.3" font-family="Times,serif" font-size="14.00">create</text>
<text text-anchor="start" x="40" y="-451.3" font-family="Times,serif" font-size="14.00">index</text>
<text text-anchor="start" x="40" y="-436.3" font-family="Times,serif" font-size="14.00">login</text>
<text text-anchor="start" x="40" y="-421.3" font-family="Times,serif" font-size="14.00">logout</text>
<text text-anchor="start" x="40" y="-406.3" font-family="Times,serif" font-size="14.00">show</text>
<polyline fill="none" stroke="black" points="32,-398.5 135,-398.5 "/>
<polyline fill="none" stroke="black" points="32,-374.5 135,-374.5 "/>
<text text-anchor="start" x="40" y="-359.3" font-family="Times,serif" font-size="14.00">find_user</text>
<text text-anchor="start" x="40" y="-344.3" font-family="Times,serif" font-size="14.00">user_params</text>
</g>
<!-- ApplicationController -->
<g id="node5" class="node"><title>ApplicationController</title>
<path fill="none" stroke="black" d="M172,-0.5C172,-0.5 284,-0.5 284,-0.5 290,-0.5 296,-6.5 296,-12.5 296,-12.5 296,-82.5 296,-82.5 296,-88.5 290,-94.5 284,-94.5 284,-94.5 172,-94.5 172,-94.5 166,-94.5 160,-88.5 160,-82.5 160,-82.5 160,-12.5 160,-12.5 160,-6.5 166,-0.5 172,-0.5"/>
<text text-anchor="middle" x="228" y="-79.3" font-family="Times,serif" font-size="14.00">ApplicationController</text>
<polyline fill="none" stroke="black" points="160,-71.5 296,-71.5 "/>
<text text-anchor="start" x="168" y="-56.3" font-family="Times,serif" font-size="14.00">validate_token</text>
<polyline fill="none" stroke="black" points="160,-48.5 296,-48.5 "/>
<polyline fill="none" stroke="black" points="160,-24.5 296,-24.5 "/>
</g>
</g>
</svg>
