<?xml version="1.0" encoding="UTF-8" standalone="no"?>
<!DOCTYPE svg PUBLIC "-//W3C//DTD SVG 1.1//EN"
 "http://www.w3.org/Graphics/SVG/1.1/DTD/svg11.dtd">
<!-- Generated by graphviz version 2.38.0 (20140413.2041)
 -->
<!-- Title: controllers_diagram Pages: 1 -->
<svg width="575pt" height="576pt"
 viewBox="0.00 0.00 574.50 576.00" xmlns="http://www.w3.org/2000/svg" xmlns:xlink="http://www.w3.org/1999/xlink">
<g id="graph0" class="graph" transform="scale(1 1) rotate(0) translate(212.5 364.5)">
<title>controllers_diagram</title>
<polygon fill="none" stroke="none" points="-212.5,211.5 -212.5,-364.5 362,-364.5 362,211.5 -212.5,211.5"/>
<!-- _diagram_info -->
<g id="node1" class="node"><title>_diagram_info</title>
<text text-anchor="start" x="152" y="-207.6" font-family="Times,serif" font-size="13.00">Controllers diagram</text>
<text text-anchor="start" x="152" y="-193.6" font-family="Times,serif" font-size="13.00">Date: Dec 01 2017 &#45; 14:48</text>
<text text-anchor="start" x="152" y="-179.6" font-family="Times,serif" font-size="13.00">Migration version: 20171201115013</text>
<text text-anchor="start" x="152" y="-165.6" font-family="Times,serif" font-size="13.00">Generated by RailRoady 1.5.3</text>
<text text-anchor="start" x="152" y="-151.6" font-family="Times,serif" font-size="13.00">http://railroady.prestonlee.com</text>
</g>
<!-- BidsController -->
<g id="node2" class="node"><title>BidsController</title>
<path fill="none" stroke="black" d="M-196.5,-1C-196.5,-1 -123.5,-1 -123.5,-1 -117.5,-1 -111.5,-7 -111.5,-13 -111.5,-13 -111.5,-143 -111.5,-143 -111.5,-149 -117.5,-155 -123.5,-155 -123.5,-155 -196.5,-155 -196.5,-155 -202.5,-155 -208.5,-149 -208.5,-143 -208.5,-143 -208.5,-13 -208.5,-13 -208.5,-7 -202.5,-1 -196.5,-1"/>
<text text-anchor="middle" x="-160" y="-139.8" font-family="Times,serif" font-size="14.00">BidsController</text>
<polyline fill="none" stroke="black" points="-208.5,-132 -111.5,-132 "/>
<text text-anchor="start" x="-200.5" y="-116.8" font-family="Times,serif" font-size="14.00">create</text>
<text text-anchor="start" x="-200.5" y="-101.8" font-family="Times,serif" font-size="14.00">destroy</text>
<text text-anchor="start" x="-200.5" y="-86.8" font-family="Times,serif" font-size="14.00">index</text>
<text text-anchor="start" x="-200.5" y="-71.8" font-family="Times,serif" font-size="14.00">show</text>
<text text-anchor="start" x="-200.5" y="-56.8" font-family="Times,serif" font-size="14.00">update</text>
<polyline fill="none" stroke="black" points="-208.5,-49 -111.5,-49 "/>
<polyline fill="none" stroke="black" points="-208.5,-25 -111.5,-25 "/>
</g>
<!-- AnuncisController -->
<g id="node3" class="node"><title>AnuncisController</title>
<path fill="none" stroke="black" d="M92.5,79.5C92.5,79.5 185.5,79.5 185.5,79.5 191.5,79.5 197.5,73.5 197.5,67.5 197.5,67.5 197.5,-91.5 197.5,-91.5 197.5,-97.5 191.5,-103.5 185.5,-103.5 185.5,-103.5 92.5,-103.5 92.5,-103.5 86.5,-103.5 80.5,-97.5 80.5,-91.5 80.5,-91.5 80.5,67.5 80.5,67.5 80.5,73.5 86.5,79.5 92.5,79.5"/>
<text text-anchor="middle" x="139" y="-88.3" font-family="Times,serif" font-size="14.00">AnuncisController</text>
<polyline fill="none" stroke="black" points="80.5,-80.5 197.5,-80.5 "/>
<text text-anchor="start" x="88.5" y="-65.3" font-family="Times,serif" font-size="14.00">create</text>
<text text-anchor="start" x="88.5" y="-50.3" font-family="Times,serif" font-size="14.00">destroy</text>
<text text-anchor="start" x="88.5" y="-35.3" font-family="Times,serif" font-size="14.00">index</text>
<text text-anchor="start" x="88.5" y="-20.3" font-family="Times,serif" font-size="14.00">show</text>
<text text-anchor="start" x="88.5" y="-5.3" font-family="Times,serif" font-size="14.00">update</text>
<polyline fill="none" stroke="black" points="80.5,2.5 197.5,2.5 "/>
<polyline fill="none" stroke="black" points="80.5,26.5 197.5,26.5 "/>
<text text-anchor="start" x="88.5" y="41.7" font-family="Times,serif" font-size="14.00">anunci_params</text>
<text text-anchor="start" x="88.5" y="56.7" font-family="Times,serif" font-size="14.00">find_anunci</text>
<text text-anchor="start" x="88.5" y="71.7" font-family="Times,serif" font-size="14.00">find_user</text>
</g>
<!-- UsersController -->
<g id="node4" class="node"><title>UsersController</title>
<path fill="none" stroke="black" d="M-179.5,-192C-179.5,-192 -100.5,-192 -100.5,-192 -94.5,-192 -88.5,-198 -88.5,-204 -88.5,-204 -88.5,-348 -88.5,-348 -88.5,-354 -94.5,-360 -100.5,-360 -100.5,-360 -179.5,-360 -179.5,-360 -185.5,-360 -191.5,-354 -191.5,-348 -191.5,-348 -191.5,-204 -191.5,-204 -191.5,-198 -185.5,-192 -179.5,-192"/>
<text text-anchor="middle" x="-140" y="-344.8" font-family="Times,serif" font-size="14.00">UsersController</text>
<polyline fill="none" stroke="black" points="-191.5,-337 -88.5,-337 "/>
<text text-anchor="start" x="-183.5" y="-321.8" font-family="Times,serif" font-size="14.00">create</text>
<text text-anchor="start" x="-183.5" y="-306.8" font-family="Times,serif" font-size="14.00">index</text>
<text text-anchor="start" x="-183.5" y="-291.8" font-family="Times,serif" font-size="14.00">login</text>
<text text-anchor="start" x="-183.5" y="-276.8" font-family="Times,serif" font-size="14.00">logout</text>
<text text-anchor="start" x="-183.5" y="-261.8" font-family="Times,serif" font-size="14.00">show</text>
<polyline fill="none" stroke="black" points="-191.5,-254 -88.5,-254 "/>
<polyline fill="none" stroke="black" points="-191.5,-230 -88.5,-230 "/>
<text text-anchor="start" x="-183.5" y="-214.8" font-family="Times,serif" font-size="14.00">find_user</text>
<text text-anchor="start" x="-183.5" y="-199.8" font-family="Times,serif" font-size="14.00">user_params</text>
</g>
<!-- ShopsController -->
<g id="node5" class="node"><title>ShopsController</title>
<path fill="none" stroke="black" d="M-51.5,-128.5C-51.5,-128.5 29.5,-128.5 29.5,-128.5 35.5,-128.5 41.5,-134.5 41.5,-140.5 41.5,-140.5 41.5,-299.5 41.5,-299.5 41.5,-305.5 35.5,-311.5 29.5,-311.5 29.5,-311.5 -51.5,-311.5 -51.5,-311.5 -57.5,-311.5 -63.5,-305.5 -63.5,-299.5 -63.5,-299.5 -63.5,-140.5 -63.5,-140.5 -63.5,-134.5 -57.5,-128.5 -51.5,-128.5"/>
<text text-anchor="middle" x="-11" y="-296.3" font-family="Times,serif" font-size="14.00">ShopsController</text>
<polyline fill="none" stroke="black" points="-63.5,-288.5 41.5,-288.5 "/>
<text text-anchor="start" x="-55.5" y="-273.3" font-family="Times,serif" font-size="14.00">create</text>
<text text-anchor="start" x="-55.5" y="-258.3" font-family="Times,serif" font-size="14.00">destroy</text>
<text text-anchor="start" x="-55.5" y="-243.3" font-family="Times,serif" font-size="14.00">index</text>
<text text-anchor="start" x="-55.5" y="-228.3" font-family="Times,serif" font-size="14.00">show</text>
<text text-anchor="start" x="-55.5" y="-213.3" font-family="Times,serif" font-size="14.00">update</text>
<polyline fill="none" stroke="black" points="-63.5,-205.5 41.5,-205.5 "/>
<polyline fill="none" stroke="black" points="-63.5,-181.5 41.5,-181.5 "/>
<text text-anchor="start" x="-55.5" y="-166.3" font-family="Times,serif" font-size="14.00">find_shop</text>
<text text-anchor="start" x="-55.5" y="-151.3" font-family="Times,serif" font-size="14.00">find_user</text>
<text text-anchor="start" x="-55.5" y="-136.3" font-family="Times,serif" font-size="14.00">shop_params</text>
</g>
<!-- ApplicationController -->
<g id="node6" class="node"><title>ApplicationController</title>
<path fill="none" stroke="black" d="M92,207C92,207 204,207 204,207 210,207 216,201 216,195 216,195 216,125 216,125 216,119 210,113 204,113 204,113 92,113 92,113 86,113 80,119 80,125 80,125 80,195 80,195 80,201 86,207 92,207"/>
<text text-anchor="middle" x="148" y="128.2" font-family="Times,serif" font-size="14.00">ApplicationController</text>
<polyline fill="none" stroke="black" points="80,136 216,136 "/>
<text text-anchor="start" x="88" y="151.2" font-family="Times,serif" font-size="14.00">validate_token</text>
<polyline fill="none" stroke="black" points="80,159 216,159 "/>
<polyline fill="none" stroke="black" points="80,183 216,183 "/>
</g>
<!-- ComentarisController -->
<g id="node7" class="node"><title>ComentarisController</title>
<path fill="none" stroke="black" d="M-67.5,95.5C-67.5,95.5 43.5,95.5 43.5,95.5 49.5,95.5 55.5,89.5 55.5,83.5 55.5,83.5 55.5,-75.5 55.5,-75.5 55.5,-81.5 49.5,-87.5 43.5,-87.5 43.5,-87.5 -67.5,-87.5 -67.5,-87.5 -73.5,-87.5 -79.5,-81.5 -79.5,-75.5 -79.5,-75.5 -79.5,83.5 -79.5,83.5 -79.5,89.5 -73.5,95.5 -67.5,95.5"/>
<text text-anchor="middle" x="-12" y="-72.3" font-family="Times,serif" font-size="14.00">ComentarisController</text>
<polyline fill="none" stroke="black" points="-79.5,-64.5 55.5,-64.5 "/>
<text text-anchor="start" x="-71.5" y="-49.3" font-family="Times,serif" font-size="14.00">create</text>
<text text-anchor="start" x="-71.5" y="-34.3" font-family="Times,serif" font-size="14.00">destroy</text>
<text text-anchor="start" x="-71.5" y="-19.3" font-family="Times,serif" font-size="14.00">index</text>
<text text-anchor="start" x="-71.5" y="-4.3" font-family="Times,serif" font-size="14.00">show</text>
<text text-anchor="start" x="-71.5" y="10.7" font-family="Times,serif" font-size="14.00">update</text>
<polyline fill="none" stroke="black" points="-79.5,18.5 55.5,18.5 "/>
<polyline fill="none" stroke="black" points="-79.5,42.5 55.5,42.5 "/>
<text text-anchor="start" x="-71.5" y="57.7" font-family="Times,serif" font-size="14.00">check_owner</text>
<text text-anchor="start" x="-71.5" y="72.7" font-family="Times,serif" font-size="14.00">comentari_params</text>
<text text-anchor="start" x="-71.5" y="87.7" font-family="Times,serif" font-size="14.00">find_comentari</text>
</g>
</g>
</svg>
