<?xml version="1.0" encoding="UTF-8" standalone="no"?>
<!DOCTYPE svg PUBLIC "-//W3C//DTD SVG 1.1//EN"
 "http://www.w3.org/Graphics/SVG/1.1/DTD/svg11.dtd">
<!-- Generated by graphviz version 2.36.0 (20140111.2315)
 -->
<!-- Title: controllers_diagram Pages: 1 -->
<svg width="291pt" height="267pt"
 viewBox="0.00 0.00 291.00 267.00" xmlns="http://www.w3.org/2000/svg" xmlns:xlink="http://www.w3.org/1999/xlink">
<g id="graph0" class="graph" transform="scale(1 1) rotate(0) translate(4 263)">
<title>controllers_diagram</title>
<polygon fill="none" stroke="none" points="-4,4 -4,-263 287,-263 287,4 -4,4"/>
<!-- _diagram_info -->
<g id="node1" class="node"><title>_diagram_info</title>
<text text-anchor="start" x="8" y="-63.6" font-family="Times,serif" font-size="13.00">Controllers diagram</text>
<text text-anchor="start" x="8" y="-49.6" font-family="Times,serif" font-size="13.00">Date: Oct 27 2017 &#45; 12:57</text>
<text text-anchor="start" x="8" y="-35.6" font-family="Times,serif" font-size="13.00">Migration version: 20171020123135</text>
<text text-anchor="start" x="8" y="-21.6" font-family="Times,serif" font-size="13.00">Generated by RailRoady 1.5.3</text>
<text text-anchor="start" x="8" y="-7.6" font-family="Times,serif" font-size="13.00">http://railroady.prestonlee.com</text>
</g>
<!-- UsersController -->
<g id="node2" class="node"><title>UsersController</title>
<path fill="none" stroke="black" d="M192,-105.5C192,-105.5 271,-105.5 271,-105.5 277,-105.5 283,-111.5 283,-117.5 283,-117.5 283,-246.5 283,-246.5 283,-252.5 277,-258.5 271,-258.5 271,-258.5 192,-258.5 192,-258.5 186,-258.5 180,-252.5 180,-246.5 180,-246.5 180,-117.5 180,-117.5 180,-111.5 186,-105.5 192,-105.5"/>
<text text-anchor="middle" x="231.5" y="-243.3" font-family="Times,serif" font-size="14.00">UsersController</text>
<polyline fill="none" stroke="black" points="180,-235.5 283,-235.5 "/>
<text text-anchor="start" x="188" y="-220.3" font-family="Times,serif" font-size="14.00">create</text>
<text text-anchor="start" x="188" y="-205.3" font-family="Times,serif" font-size="14.00">login</text>
<text text-anchor="start" x="188" y="-190.3" font-family="Times,serif" font-size="14.00">logout</text>
<text text-anchor="start" x="188" y="-175.3" font-family="Times,serif" font-size="14.00">show</text>
<polyline fill="none" stroke="black" points="180,-167.5 283,-167.5 "/>
<polyline fill="none" stroke="black" points="180,-143.5 283,-143.5 "/>
<text text-anchor="start" x="188" y="-128.3" font-family="Times,serif" font-size="14.00">find_user</text>
<text text-anchor="start" x="188" y="-113.3" font-family="Times,serif" font-size="14.00">user_params</text>
</g>
<!-- ApplicationController -->
<g id="node3" class="node"><title>ApplicationController</title>
<path fill="none" stroke="black" d="M27,-150.5C27,-150.5 139,-150.5 139,-150.5 145,-150.5 151,-156.5 151,-162.5 151,-162.5 151,-232.5 151,-232.5 151,-238.5 145,-244.5 139,-244.5 139,-244.5 27,-244.5 27,-244.5 21,-244.5 15,-238.5 15,-232.5 15,-232.5 15,-162.5 15,-162.5 15,-156.5 21,-150.5 27,-150.5"/>
<text text-anchor="middle" x="83" y="-229.3" font-family="Times,serif" font-size="14.00">ApplicationController</text>
<polyline fill="none" stroke="black" points="15,-221.5 151,-221.5 "/>
<text text-anchor="start" x="23" y="-206.3" font-family="Times,serif" font-size="14.00">validate_token</text>
<polyline fill="none" stroke="black" points="15,-198.5 151,-198.5 "/>
<polyline fill="none" stroke="black" points="15,-174.5 151,-174.5 "/>
</g>
</g>
</svg>
