<?xml version="1.0" encoding="UTF-8" standalone="no"?>
<!DOCTYPE svg PUBLIC "-//W3C//DTD SVG 1.1//EN"
 "http://www.w3.org/Graphics/SVG/1.1/DTD/svg11.dtd">
<!-- Generated by graphviz version 2.36.0 (20140111.2315)
 -->
<!-- Title: controllers_diagram Pages: 1 -->
<svg width="617pt" height="642pt"
 viewBox="0.00 0.00 617.00 642.00" xmlns="http://www.w3.org/2000/svg" xmlns:xlink="http://www.w3.org/1999/xlink">
<g id="graph0" class="graph" transform="scale(1 1) rotate(0) translate(4 638)">
<title>controllers_diagram</title>
<polygon fill="none" stroke="none" points="-4,4 -4,-638 613,-638 613,4 -4,4"/>
<!-- _diagram_info -->
<g id="node1" class="node"><title>_diagram_info</title>
<text text-anchor="start" x="350" y="-63.6" font-family="Times,serif" font-size="13.00">Controllers diagram</text>
<text text-anchor="start" x="350" y="-49.6" font-family="Times,serif" font-size="13.00">Date: Dec 11 2017 &#45; 16:10</text>
<text text-anchor="start" x="350" y="-35.6" font-family="Times,serif" font-size="13.00">Migration version: 20171207152751</text>
<text text-anchor="start" x="350" y="-21.6" font-family="Times,serif" font-size="13.00">Generated by RailRoady 1.5.3</text>
<text text-anchor="start" x="350" y="-7.6" font-family="Times,serif" font-size="13.00">http://railroady.prestonlee.com</text>
</g>
<!-- ComentarisController -->
<g id="node2" class="node"><title>ComentarisController</title>
<path fill="none" stroke="black" d="M462,-396.5C462,-396.5 573,-396.5 573,-396.5 579,-396.5 585,-402.5 585,-408.5 585,-408.5 585,-567.5 585,-567.5 585,-573.5 579,-579.5 573,-579.5 573,-579.5 462,-579.5 462,-579.5 456,-579.5 450,-573.5 450,-567.5 450,-567.5 450,-408.5 450,-408.5 450,-402.5 456,-396.5 462,-396.5"/>
<text text-anchor="middle" x="517.5" y="-564.3" font-family="Times,serif" font-size="14.00">ComentarisController</text>
<polyline fill="none" stroke="black" points="450,-556.5 585,-556.5 "/>
<text text-anchor="start" x="458" y="-541.3" font-family="Times,serif" font-size="14.00">create</text>
<text text-anchor="start" x="458" y="-526.3" font-family="Times,serif" font-size="14.00">destroy</text>
<text text-anchor="start" x="458" y="-511.3" font-family="Times,serif" font-size="14.00">index</text>
<text text-anchor="start" x="458" y="-496.3" font-family="Times,serif" font-size="14.00">show</text>
<text text-anchor="start" x="458" y="-481.3" font-family="Times,serif" font-size="14.00">update</text>
<polyline fill="none" stroke="black" points="450,-473.5 585,-473.5 "/>
<polyline fill="none" stroke="black" points="450,-449.5 585,-449.5 "/>
<text text-anchor="start" x="458" y="-434.3" font-family="Times,serif" font-size="14.00">check_owner</text>
<text text-anchor="start" x="458" y="-419.3" font-family="Times,serif" font-size="14.00">comentari_params</text>
<text text-anchor="start" x="458" y="-404.3" font-family="Times,serif" font-size="14.00">find_comentari</text>
</g>
<!-- BidsController -->
<g id="node3" class="node"><title>BidsController</title>
<path fill="none" stroke="black" d="M192,-72.5C192,-72.5 291,-72.5 291,-72.5 297,-72.5 303,-78.5 303,-84.5 303,-84.5 303,-303.5 303,-303.5 303,-309.5 297,-315.5 291,-315.5 291,-315.5 192,-315.5 192,-315.5 186,-315.5 180,-309.5 180,-303.5 180,-303.5 180,-84.5 180,-84.5 180,-78.5 186,-72.5 192,-72.5"/>
<text text-anchor="middle" x="241.5" y="-300.3" font-family="Times,serif" font-size="14.00">BidsController</text>
<polyline fill="none" stroke="black" points="180,-292.5 303,-292.5 "/>
<text text-anchor="start" x="188" y="-277.3" font-family="Times,serif" font-size="14.00">create</text>
<text text-anchor="start" x="188" y="-262.3" font-family="Times,serif" font-size="14.00">destroy</text>
<text text-anchor="start" x="188" y="-247.3" font-family="Times,serif" font-size="14.00">index</text>
<text text-anchor="start" x="188" y="-232.3" font-family="Times,serif" font-size="14.00">show</text>
<text text-anchor="start" x="188" y="-217.3" font-family="Times,serif" font-size="14.00">update</text>
<polyline fill="none" stroke="black" points="180,-209.5 303,-209.5 "/>
<polyline fill="none" stroke="black" points="180,-185.5 303,-185.5 "/>
<text text-anchor="start" x="188" y="-170.3" font-family="Times,serif" font-size="14.00">bid_index_params</text>
<text text-anchor="start" x="188" y="-155.3" font-family="Times,serif" font-size="14.00">bid_params</text>
<text text-anchor="start" x="188" y="-140.3" font-family="Times,serif" font-size="14.00">customBidJSON</text>
<text text-anchor="start" x="188" y="-125.3" font-family="Times,serif" font-size="14.00">find_anunci</text>
<text text-anchor="start" x="188" y="-110.3" font-family="Times,serif" font-size="14.00">find_bid</text>
<text text-anchor="start" x="188" y="-95.3" font-family="Times,serif" font-size="14.00">find_user</text>
<text text-anchor="start" x="188" y="-80.3" font-family="Times,serif" font-size="14.00">update_bid_params</text>
</g>
<!-- CouponsController -->
<g id="node4" class="node"><title>CouponsController</title>
<path fill="none" stroke="black" d="M30,-126.5C30,-126.5 129,-126.5 129,-126.5 135,-126.5 141,-132.5 141,-138.5 141,-138.5 141,-312.5 141,-312.5 141,-318.5 135,-324.5 129,-324.5 129,-324.5 30,-324.5 30,-324.5 24,-324.5 18,-318.5 18,-312.5 18,-312.5 18,-138.5 18,-138.5 18,-132.5 24,-126.5 30,-126.5"/>
<text text-anchor="middle" x="79.5" y="-309.3" font-family="Times,serif" font-size="14.00">CouponsController</text>
<polyline fill="none" stroke="black" points="18,-301.5 141,-301.5 "/>
<text text-anchor="start" x="26" y="-286.3" font-family="Times,serif" font-size="14.00">create</text>
<text text-anchor="start" x="26" y="-271.3" font-family="Times,serif" font-size="14.00">destroy</text>
<text text-anchor="start" x="26" y="-256.3" font-family="Times,serif" font-size="14.00">index</text>
<text text-anchor="start" x="26" y="-241.3" font-family="Times,serif" font-size="14.00">show</text>
<text text-anchor="start" x="26" y="-226.3" font-family="Times,serif" font-size="14.00">update</text>
<polyline fill="none" stroke="black" points="18,-218.5 141,-218.5 "/>
<polyline fill="none" stroke="black" points="18,-194.5 141,-194.5 "/>
<text text-anchor="start" x="26" y="-179.3" font-family="Times,serif" font-size="14.00">correct_ownership?</text>
<text text-anchor="start" x="26" y="-164.3" font-family="Times,serif" font-size="14.00">coupon_params</text>
<text text-anchor="start" x="26" y="-149.3" font-family="Times,serif" font-size="14.00">find_coupon</text>
<text text-anchor="start" x="26" y="-134.3" font-family="Times,serif" font-size="14.00">find_user</text>
</g>
<!-- BoughtCouponsController -->
<g id="node5" class="node"><title>BoughtCouponsController</title>
<path fill="none" stroke="black" d="M156,-360.5C156,-360.5 292,-360.5 292,-360.5 298,-360.5 304,-366.5 304,-372.5 304,-372.5 304,-531.5 304,-531.5 304,-537.5 298,-543.5 292,-543.5 292,-543.5 156,-543.5 156,-543.5 150,-543.5 144,-537.5 144,-531.5 144,-531.5 144,-372.5 144,-372.5 144,-366.5 150,-360.5 156,-360.5"/>
<text text-anchor="middle" x="224" y="-528.3" font-family="Times,serif" font-size="14.00">BoughtCouponsController</text>
<polyline fill="none" stroke="black" points="144,-520.5 304,-520.5 "/>
<text text-anchor="start" x="152" y="-505.3" font-family="Times,serif" font-size="14.00">create</text>
<text text-anchor="start" x="152" y="-490.3" font-family="Times,serif" font-size="14.00">destroy</text>
<text text-anchor="start" x="152" y="-475.3" font-family="Times,serif" font-size="14.00">index</text>
<text text-anchor="start" x="152" y="-460.3" font-family="Times,serif" font-size="14.00">show</text>
<text text-anchor="start" x="152" y="-445.3" font-family="Times,serif" font-size="14.00">update</text>
<polyline fill="none" stroke="black" points="144,-437.5 304,-437.5 "/>
<polyline fill="none" stroke="black" points="144,-413.5 304,-413.5 "/>
<text text-anchor="start" x="152" y="-398.3" font-family="Times,serif" font-size="14.00">coupon_params</text>
<text text-anchor="start" x="152" y="-383.3" font-family="Times,serif" font-size="14.00">find_coupon</text>
<text text-anchor="start" x="152" y="-368.3" font-family="Times,serif" font-size="14.00">find_user</text>
</g>
<!-- AnuncisController -->
<g id="node6" class="node"><title>AnuncisController</title>
<path fill="none" stroke="black" d="M354,-108.5C354,-108.5 455,-108.5 455,-108.5 461,-108.5 467,-114.5 467,-120.5 467,-120.5 467,-339.5 467,-339.5 467,-345.5 461,-351.5 455,-351.5 455,-351.5 354,-351.5 354,-351.5 348,-351.5 342,-345.5 342,-339.5 342,-339.5 342,-120.5 342,-120.5 342,-114.5 348,-108.5 354,-108.5"/>
<text text-anchor="middle" x="404.5" y="-336.3" font-family="Times,serif" font-size="14.00">AnuncisController</text>
<polyline fill="none" stroke="black" points="342,-328.5 467,-328.5 "/>
<text text-anchor="start" x="350" y="-313.3" font-family="Times,serif" font-size="14.00">cancelBidSelection</text>
<text text-anchor="start" x="350" y="-298.3" font-family="Times,serif" font-size="14.00">confirmCompletion</text>
<text text-anchor="start" x="350" y="-283.3" font-family="Times,serif" font-size="14.00">create</text>
<text text-anchor="start" x="350" y="-268.3" font-family="Times,serif" font-size="14.00">destroy</text>
<text text-anchor="start" x="350" y="-253.3" font-family="Times,serif" font-size="14.00">index</text>
<text text-anchor="start" x="350" y="-238.3" font-family="Times,serif" font-size="14.00">selectBid</text>
<text text-anchor="start" x="350" y="-223.3" font-family="Times,serif" font-size="14.00">show</text>
<text text-anchor="start" x="350" y="-208.3" font-family="Times,serif" font-size="14.00">update</text>
<polyline fill="none" stroke="black" points="342,-200.5 467,-200.5 "/>
<polyline fill="none" stroke="black" points="342,-176.5 467,-176.5 "/>
<text text-anchor="start" x="350" y="-161.3" font-family="Times,serif" font-size="14.00">anunci_params</text>
<text text-anchor="start" x="350" y="-146.3" font-family="Times,serif" font-size="14.00">bid_select_params</text>
<text text-anchor="start" x="350" y="-131.3" font-family="Times,serif" font-size="14.00">find_anunci</text>
<text text-anchor="start" x="350" y="-116.3" font-family="Times,serif" font-size="14.00">find_user</text>
</g>
<!-- ShopsController -->
<g id="node7" class="node"><title>ShopsController</title>
<path fill="none" stroke="black" d="M516,-108.5C516,-108.5 597,-108.5 597,-108.5 603,-108.5 609,-114.5 609,-120.5 609,-120.5 609,-279.5 609,-279.5 609,-285.5 603,-291.5 597,-291.5 597,-291.5 516,-291.5 516,-291.5 510,-291.5 504,-285.5 504,-279.5 504,-279.5 504,-120.5 504,-120.5 504,-114.5 510,-108.5 516,-108.5"/>
<text text-anchor="middle" x="556.5" y="-276.3" font-family="Times,serif" font-size="14.00">ShopsController</text>
<polyline fill="none" stroke="black" points="504,-268.5 609,-268.5 "/>
<text text-anchor="start" x="512" y="-253.3" font-family="Times,serif" font-size="14.00">create</text>
<text text-anchor="start" x="512" y="-238.3" font-family="Times,serif" font-size="14.00">destroy</text>
<text text-anchor="start" x="512" y="-223.3" font-family="Times,serif" font-size="14.00">index</text>
<text text-anchor="start" x="512" y="-208.3" font-family="Times,serif" font-size="14.00">show</text>
<text text-anchor="start" x="512" y="-193.3" font-family="Times,serif" font-size="14.00">update</text>
<polyline fill="none" stroke="black" points="504,-185.5 609,-185.5 "/>
<polyline fill="none" stroke="black" points="504,-161.5 609,-161.5 "/>
<text text-anchor="start" x="512" y="-146.3" font-family="Times,serif" font-size="14.00">find_shop</text>
<text text-anchor="start" x="512" y="-131.3" font-family="Times,serif" font-size="14.00">find_user</text>
<text text-anchor="start" x="512" y="-116.3" font-family="Times,serif" font-size="14.00">shop_params</text>
</g>
<!-- UsersController -->
<g id="node8" class="node"><title>UsersController</title>
<path fill="none" stroke="black" d="M12,-450.5C12,-450.5 91,-450.5 91,-450.5 97,-450.5 103,-456.5 103,-462.5 103,-462.5 103,-621.5 103,-621.5 103,-627.5 97,-633.5 91,-633.5 91,-633.5 12,-633.5 12,-633.5 6,-633.5 0,-627.5 0,-621.5 0,-621.5 0,-462.5 0,-462.5 0,-456.5 6,-450.5 12,-450.5"/>
<text text-anchor="middle" x="51.5" y="-618.3" font-family="Times,serif" font-size="14.00">UsersController</text>
<polyline fill="none" stroke="black" points="0,-610.5 103,-610.5 "/>
<text text-anchor="start" x="8" y="-595.3" font-family="Times,serif" font-size="14.00">contacts</text>
<text text-anchor="start" x="8" y="-580.3" font-family="Times,serif" font-size="14.00">create</text>
<text text-anchor="start" x="8" y="-565.3" font-family="Times,serif" font-size="14.00">index</text>
<text text-anchor="start" x="8" y="-550.3" font-family="Times,serif" font-size="14.00">login</text>
<text text-anchor="start" x="8" y="-535.3" font-family="Times,serif" font-size="14.00">logout</text>
<text text-anchor="start" x="8" y="-520.3" font-family="Times,serif" font-size="14.00">show</text>
<polyline fill="none" stroke="black" points="0,-512.5 103,-512.5 "/>
<polyline fill="none" stroke="black" points="0,-488.5 103,-488.5 "/>
<text text-anchor="start" x="8" y="-473.3" font-family="Times,serif" font-size="14.00">find_user</text>
<text text-anchor="start" x="8" y="-458.3" font-family="Times,serif" font-size="14.00">user_params</text>
</g>
<!-- ApplicationController -->
<g id="node9" class="node"><title>ApplicationController</title>
<path fill="none" stroke="black" d="M12,-0.5C12,-0.5 124,-0.5 124,-0.5 130,-0.5 136,-6.5 136,-12.5 136,-12.5 136,-82.5 136,-82.5 136,-88.5 130,-94.5 124,-94.5 124,-94.5 12,-94.5 12,-94.5 6,-94.5 0,-88.5 0,-82.5 0,-82.5 0,-12.5 0,-12.5 0,-6.5 6,-0.5 12,-0.5"/>
<text text-anchor="middle" x="68" y="-79.3" font-family="Times,serif" font-size="14.00">ApplicationController</text>
<polyline fill="none" stroke="black" points="0,-71.5 136,-71.5 "/>
<text text-anchor="start" x="8" y="-56.3" font-family="Times,serif" font-size="14.00">validate_token</text>
<polyline fill="none" stroke="black" points="0,-48.5 136,-48.5 "/>
<polyline fill="none" stroke="black" points="0,-24.5 136,-24.5 "/>
</g>
</g>
</svg>
