<?xml version="1.0" encoding="UTF-8" standalone="no"?>
<!DOCTYPE svg PUBLIC "-//W3C//DTD SVG 1.1//EN"
 "http://www.w3.org/Graphics/SVG/1.1/DTD/svg11.dtd">
<!-- Generated by graphviz version 2.38.0 (20140413.2041)
 -->
<!-- Title: controllers_diagram Pages: 1 -->
<svg width="633pt" height="786pt"
 viewBox="0.00 0.00 633.00 785.50" xmlns="http://www.w3.org/2000/svg" xmlns:xlink="http://www.w3.org/1999/xlink">
<g id="graph0" class="graph" transform="scale(1 1) rotate(0) translate(273.5 440)">
<title>controllers_diagram</title>
<polygon fill="none" stroke="none" points="-273.5,345.5 -273.5,-440 359.5,-440 359.5,345.5 -273.5,345.5"/>
<!-- _diagram_info -->
<g id="node1" class="node"><title>_diagram_info</title>
<text text-anchor="start" x="98" y="134.4" font-family="Times,serif" font-size="13.00">Controllers diagram</text>
<text text-anchor="start" x="98" y="148.4" font-family="Times,serif" font-size="13.00">Date: Jan 11 2018 &#45; 16:10</text>
<text text-anchor="start" x="98" y="162.4" font-family="Times,serif" font-size="13.00">Migration version: 20171221164058</text>
<text text-anchor="start" x="98" y="176.4" font-family="Times,serif" font-size="13.00">Generated by RailRoady 1.5.3</text>
<text text-anchor="start" x="98" y="190.4" font-family="Times,serif" font-size="13.00">http://railroady.prestonlee.com</text>
</g>
<!-- BadgesController -->
<g id="node2" class="node"><title>BadgesController</title>
<path fill="none" stroke="black" d="M102,341C102,341 190,341 190,341 196,341 202,335 202,329 202,329 202,245 202,245 202,239 196,233 190,233 190,233 102,233 102,233 96,233 90,239 90,245 90,245 90,329 90,329 90,335 96,341 102,341"/>
<text text-anchor="middle" x="146" y="248.2" font-family="Times,serif" font-size="14.00">BadgesController</text>
<polyline fill="none" stroke="black" points="90,256 202,256 "/>
<text text-anchor="start" x="98" y="271.2" font-family="Times,serif" font-size="14.00">index</text>
<text text-anchor="start" x="98" y="286.2" font-family="Times,serif" font-size="14.00">index_user</text>
<polyline fill="none" stroke="black" points="90,294 202,294 "/>
<polyline fill="none" stroke="black" points="90,318 202,318 "/>
<text text-anchor="start" x="98" y="333.2" font-family="Times,serif" font-size="14.00">find_user</text>
</g>
<!-- BidsController -->
<g id="node3" class="node"><title>BidsController</title>
<path fill="none" stroke="black" d="M-59.5,143C-59.5,143 39.5,143 39.5,143 45.5,143 51.5,137 51.5,131 51.5,131 51.5,-103 51.5,-103 51.5,-109 45.5,-115 39.5,-115 39.5,-115 -59.5,-115 -59.5,-115 -65.5,-115 -71.5,-109 -71.5,-103 -71.5,-103 -71.5,131 -71.5,131 -71.5,137 -65.5,143 -59.5,143"/>
<text text-anchor="middle" x="-10" y="-99.8" font-family="Times,serif" font-size="14.00">BidsController</text>
<polyline fill="none" stroke="black" points="-71.5,-92 51.5,-92 "/>
<text text-anchor="start" x="-63.5" y="-76.8" font-family="Times,serif" font-size="14.00">create</text>
<text text-anchor="start" x="-63.5" y="-61.8" font-family="Times,serif" font-size="14.00">destroy</text>
<text text-anchor="start" x="-63.5" y="-46.8" font-family="Times,serif" font-size="14.00">index</text>
<text text-anchor="start" x="-63.5" y="-31.8" font-family="Times,serif" font-size="14.00">show</text>
<text text-anchor="start" x="-63.5" y="-16.8" font-family="Times,serif" font-size="14.00">update</text>
<polyline fill="none" stroke="black" points="-71.5,-9 51.5,-9 "/>
<polyline fill="none" stroke="black" points="-71.5,15 51.5,15 "/>
<text text-anchor="start" x="-63.5" y="30.2" font-family="Times,serif" font-size="14.00">bid_index_params</text>
<text text-anchor="start" x="-63.5" y="45.2" font-family="Times,serif" font-size="14.00">bid_params</text>
<text text-anchor="start" x="-63.5" y="60.2" font-family="Times,serif" font-size="14.00">current_user</text>
<text text-anchor="start" x="-63.5" y="75.2" font-family="Times,serif" font-size="14.00">customBidJSON</text>
<text text-anchor="start" x="-63.5" y="90.2" font-family="Times,serif" font-size="14.00">find_anunci</text>
<text text-anchor="start" x="-63.5" y="105.2" font-family="Times,serif" font-size="14.00">find_bid</text>
<text text-anchor="start" x="-63.5" y="120.2" font-family="Times,serif" font-size="14.00">find_user</text>
<text text-anchor="start" x="-63.5" y="135.2" font-family="Times,serif" font-size="14.00">update_bid_params</text>
</g>
<!-- AnuncisController -->
<g id="node4" class="node"><title>AnuncisController</title>
<path fill="none" stroke="black" d="M101.5,89C101.5,89 202.5,89 202.5,89 208.5,89 214.5,83 214.5,77 214.5,77 214.5,-157 214.5,-157 214.5,-163 208.5,-169 202.5,-169 202.5,-169 101.5,-169 101.5,-169 95.5,-169 89.5,-163 89.5,-157 89.5,-157 89.5,77 89.5,77 89.5,83 95.5,89 101.5,89"/>
<text text-anchor="middle" x="152" y="-153.8" font-family="Times,serif" font-size="14.00">AnuncisController</text>
<polyline fill="none" stroke="black" points="89.5,-146 214.5,-146 "/>
<text text-anchor="start" x="97.5" y="-130.8" font-family="Times,serif" font-size="14.00">cancelBidSelection</text>
<text text-anchor="start" x="97.5" y="-115.8" font-family="Times,serif" font-size="14.00">confirmCompletion</text>
<text text-anchor="start" x="97.5" y="-100.8" font-family="Times,serif" font-size="14.00">create</text>
<text text-anchor="start" x="97.5" y="-85.8" font-family="Times,serif" font-size="14.00">destroy</text>
<text text-anchor="start" x="97.5" y="-70.8" font-family="Times,serif" font-size="14.00">index</text>
<text text-anchor="start" x="97.5" y="-55.8" font-family="Times,serif" font-size="14.00">selectBid</text>
<text text-anchor="start" x="97.5" y="-40.8" font-family="Times,serif" font-size="14.00">show</text>
<text text-anchor="start" x="97.5" y="-25.8" font-family="Times,serif" font-size="14.00">update</text>
<polyline fill="none" stroke="black" points="89.5,-18 214.5,-18 "/>
<polyline fill="none" stroke="black" points="89.5,6 214.5,6 "/>
<text text-anchor="start" x="97.5" y="21.2" font-family="Times,serif" font-size="14.00">anunci_params</text>
<text text-anchor="start" x="97.5" y="36.2" font-family="Times,serif" font-size="14.00">bid_select_params</text>
<text text-anchor="start" x="97.5" y="51.2" font-family="Times,serif" font-size="14.00">current_user</text>
<text text-anchor="start" x="97.5" y="66.2" font-family="Times,serif" font-size="14.00">find_anunci</text>
<text text-anchor="start" x="97.5" y="81.2" font-family="Times,serif" font-size="14.00">find_user</text>
</g>
<!-- UsersController -->
<g id="node5" class="node"><title>UsersController</title>
<path fill="none" stroke="black" d="M264.5,89C264.5,89 343.5,89 343.5,89 349.5,89 355.5,83 355.5,77 355.5,77 355.5,-97 355.5,-97 355.5,-103 349.5,-109 343.5,-109 343.5,-109 264.5,-109 264.5,-109 258.5,-109 252.5,-103 252.5,-97 252.5,-97 252.5,77 252.5,77 252.5,83 258.5,89 264.5,89"/>
<text text-anchor="middle" x="304" y="-93.8" font-family="Times,serif" font-size="14.00">UsersController</text>
<polyline fill="none" stroke="black" points="252.5,-86 355.5,-86 "/>
<text text-anchor="start" x="260.5" y="-70.8" font-family="Times,serif" font-size="14.00">contacts</text>
<text text-anchor="start" x="260.5" y="-55.8" font-family="Times,serif" font-size="14.00">create</text>
<text text-anchor="start" x="260.5" y="-40.8" font-family="Times,serif" font-size="14.00">index</text>
<text text-anchor="start" x="260.5" y="-25.8" font-family="Times,serif" font-size="14.00">login</text>
<text text-anchor="start" x="260.5" y="-10.8" font-family="Times,serif" font-size="14.00">logout</text>
<text text-anchor="start" x="260.5" y="4.2" font-family="Times,serif" font-size="14.00">show</text>
<polyline fill="none" stroke="black" points="252.5,12 355.5,12 "/>
<polyline fill="none" stroke="black" points="252.5,36 355.5,36 "/>
<text text-anchor="start" x="260.5" y="51.2" font-family="Times,serif" font-size="14.00">current_user</text>
<text text-anchor="start" x="260.5" y="66.2" font-family="Times,serif" font-size="14.00">find_user</text>
<text text-anchor="start" x="260.5" y="81.2" font-family="Times,serif" font-size="14.00">user_params</text>
</g>
<!-- EvaluationsController -->
<g id="node6" class="node"><title>EvaluationsController</title>
<path fill="none" stroke="black" d="M-257.5,269.5C-257.5,269.5 -144.5,269.5 -144.5,269.5 -138.5,269.5 -132.5,263.5 -132.5,257.5 -132.5,257.5 -132.5,128.5 -132.5,128.5 -132.5,122.5 -138.5,116.5 -144.5,116.5 -144.5,116.5 -257.5,116.5 -257.5,116.5 -263.5,116.5 -269.5,122.5 -269.5,128.5 -269.5,128.5 -269.5,257.5 -269.5,257.5 -269.5,263.5 -263.5,269.5 -257.5,269.5"/>
<text text-anchor="middle" x="-201" y="131.7" font-family="Times,serif" font-size="14.00">EvaluationsController</text>
<polyline fill="none" stroke="black" points="-269.5,139.5 -132.5,139.5 "/>
<text text-anchor="start" x="-261.5" y="154.7" font-family="Times,serif" font-size="14.00">create</text>
<text text-anchor="start" x="-261.5" y="169.7" font-family="Times,serif" font-size="14.00">index</text>
<polyline fill="none" stroke="black" points="-269.5,177.5 -132.5,177.5 "/>
<polyline fill="none" stroke="black" points="-269.5,201.5 -132.5,201.5 "/>
<text text-anchor="start" x="-261.5" y="216.7" font-family="Times,serif" font-size="14.00">evaluation_params</text>
<text text-anchor="start" x="-261.5" y="231.7" font-family="Times,serif" font-size="14.00">find_target_user</text>
<text text-anchor="start" x="-261.5" y="246.7" font-family="Times,serif" font-size="14.00">find_user</text>
<text text-anchor="start" x="-261.5" y="261.7" font-family="Times,serif" font-size="14.00">render_error_message</text>
</g>
<!-- BoughtCouponsController -->
<g id="node7" class="node"><title>BoughtCouponsController</title>
<path fill="none" stroke="black" d="M-96,-145C-96,-145 40,-145 40,-145 46,-145 52,-151 52,-157 52,-157 52,-331 52,-331 52,-337 46,-343 40,-343 40,-343 -96,-343 -96,-343 -102,-343 -108,-337 -108,-331 -108,-331 -108,-157 -108,-157 -108,-151 -102,-145 -96,-145"/>
<text text-anchor="middle" x="-28" y="-327.8" font-family="Times,serif" font-size="14.00">BoughtCouponsController</text>
<polyline fill="none" stroke="black" points="-108,-320 52,-320 "/>
<text text-anchor="start" x="-100" y="-304.8" font-family="Times,serif" font-size="14.00">create</text>
<text text-anchor="start" x="-100" y="-289.8" font-family="Times,serif" font-size="14.00">destroy</text>
<text text-anchor="start" x="-100" y="-274.8" font-family="Times,serif" font-size="14.00">index</text>
<text text-anchor="start" x="-100" y="-259.8" font-family="Times,serif" font-size="14.00">show</text>
<text text-anchor="start" x="-100" y="-244.8" font-family="Times,serif" font-size="14.00">update</text>
<polyline fill="none" stroke="black" points="-108,-237 52,-237 "/>
<polyline fill="none" stroke="black" points="-108,-213 52,-213 "/>
<text text-anchor="start" x="-100" y="-197.8" font-family="Times,serif" font-size="14.00">coupon_params</text>
<text text-anchor="start" x="-100" y="-182.8" font-family="Times,serif" font-size="14.00">current_user</text>
<text text-anchor="start" x="-100" y="-167.8" font-family="Times,serif" font-size="14.00">find_bought_coupon</text>
<text text-anchor="start" x="-100" y="-152.8" font-family="Times,serif" font-size="14.00">find_user</text>
</g>
<!-- ShopsController -->
<g id="node8" class="node"><title>ShopsController</title>
<path fill="none" stroke="black" d="M-239.5,-252.5C-239.5,-252.5 -158.5,-252.5 -158.5,-252.5 -152.5,-252.5 -146.5,-258.5 -146.5,-264.5 -146.5,-264.5 -146.5,-423.5 -146.5,-423.5 -146.5,-429.5 -152.5,-435.5 -158.5,-435.5 -158.5,-435.5 -239.5,-435.5 -239.5,-435.5 -245.5,-435.5 -251.5,-429.5 -251.5,-423.5 -251.5,-423.5 -251.5,-264.5 -251.5,-264.5 -251.5,-258.5 -245.5,-252.5 -239.5,-252.5"/>
<text text-anchor="middle" x="-199" y="-420.3" font-family="Times,serif" font-size="14.00">ShopsController</text>
<polyline fill="none" stroke="black" points="-251.5,-412.5 -146.5,-412.5 "/>
<text text-anchor="start" x="-243.5" y="-397.3" font-family="Times,serif" font-size="14.00">create</text>
<text text-anchor="start" x="-243.5" y="-382.3" font-family="Times,serif" font-size="14.00">destroy</text>
<text text-anchor="start" x="-243.5" y="-367.3" font-family="Times,serif" font-size="14.00">index</text>
<text text-anchor="start" x="-243.5" y="-352.3" font-family="Times,serif" font-size="14.00">show</text>
<text text-anchor="start" x="-243.5" y="-337.3" font-family="Times,serif" font-size="14.00">update</text>
<polyline fill="none" stroke="black" points="-251.5,-329.5 -146.5,-329.5 "/>
<polyline fill="none" stroke="black" points="-251.5,-305.5 -146.5,-305.5 "/>
<text text-anchor="start" x="-243.5" y="-290.3" font-family="Times,serif" font-size="14.00">find_shop</text>
<text text-anchor="start" x="-243.5" y="-275.3" font-family="Times,serif" font-size="14.00">find_user</text>
<text text-anchor="start" x="-243.5" y="-260.3" font-family="Times,serif" font-size="14.00">shop_params</text>
</g>
<!-- ApplicationController -->
<g id="node9" class="node"><title>ApplicationController</title>
<path fill="none" stroke="black" d="M-78,269C-78,269 34,269 34,269 40,269 46,263 46,257 46,257 46,187 46,187 46,181 40,175 34,175 34,175 -78,175 -78,175 -84,175 -90,181 -90,187 -90,187 -90,257 -90,257 -90,263 -84,269 -78,269"/>
<text text-anchor="middle" x="-22" y="190.2" font-family="Times,serif" font-size="14.00">ApplicationController</text>
<polyline fill="none" stroke="black" points="-90,198 46,198 "/>
<text text-anchor="start" x="-82" y="213.2" font-family="Times,serif" font-size="14.00">validate_token</text>
<polyline fill="none" stroke="black" points="-90,221 46,221 "/>
<polyline fill="none" stroke="black" points="-90,245 46,245 "/>
</g>
<!-- CouponsController -->
<g id="node10" class="node"><title>CouponsController</title>
<path fill="none" stroke="black" d="M210.5,-198.5C210.5,-198.5 309.5,-198.5 309.5,-198.5 315.5,-198.5 321.5,-204.5 321.5,-210.5 321.5,-210.5 321.5,-399.5 321.5,-399.5 321.5,-405.5 315.5,-411.5 309.5,-411.5 309.5,-411.5 210.5,-411.5 210.5,-411.5 204.5,-411.5 198.5,-405.5 198.5,-399.5 198.5,-399.5 198.5,-210.5 198.5,-210.5 198.5,-204.5 204.5,-198.5 210.5,-198.5"/>
<text text-anchor="middle" x="260" y="-396.3" font-family="Times,serif" font-size="14.00">CouponsController</text>
<polyline fill="none" stroke="black" points="198.5,-388.5 321.5,-388.5 "/>
<text text-anchor="start" x="206.5" y="-373.3" font-family="Times,serif" font-size="14.00">create</text>
<text text-anchor="start" x="206.5" y="-358.3" font-family="Times,serif" font-size="14.00">destroy</text>
<text text-anchor="start" x="206.5" y="-343.3" font-family="Times,serif" font-size="14.00">index</text>
<text text-anchor="start" x="206.5" y="-328.3" font-family="Times,serif" font-size="14.00">show</text>
<text text-anchor="start" x="206.5" y="-313.3" font-family="Times,serif" font-size="14.00">update</text>
<polyline fill="none" stroke="black" points="198.5,-305.5 321.5,-305.5 "/>
<polyline fill="none" stroke="black" points="198.5,-281.5 321.5,-281.5 "/>
<text text-anchor="start" x="206.5" y="-266.3" font-family="Times,serif" font-size="14.00">correct_ownership?</text>
<text text-anchor="start" x="206.5" y="-251.3" font-family="Times,serif" font-size="14.00">coupon_params</text>
<text text-anchor="start" x="206.5" y="-236.3" font-family="Times,serif" font-size="14.00">current_user</text>
<text text-anchor="start" x="206.5" y="-221.3" font-family="Times,serif" font-size="14.00">find_coupon</text>
<text text-anchor="start" x="206.5" y="-206.3" font-family="Times,serif" font-size="14.00">find_user</text>
</g>
<!-- ComentarisController -->
<g id="node11" class="node"><title>ComentarisController</title>
<path fill="none" stroke="black" d="M-221.5,71.5C-221.5,71.5 -110.5,71.5 -110.5,71.5 -104.5,71.5 -98.5,65.5 -98.5,59.5 -98.5,59.5 -98.5,-99.5 -98.5,-99.5 -98.5,-105.5 -104.5,-111.5 -110.5,-111.5 -110.5,-111.5 -221.5,-111.5 -221.5,-111.5 -227.5,-111.5 -233.5,-105.5 -233.5,-99.5 -233.5,-99.5 -233.5,59.5 -233.5,59.5 -233.5,65.5 -227.5,71.5 -221.5,71.5"/>
<text text-anchor="middle" x="-166" y="-96.3" font-family="Times,serif" font-size="14.00">ComentarisController</text>
<polyline fill="none" stroke="black" points="-233.5,-88.5 -98.5,-88.5 "/>
<text text-anchor="start" x="-225.5" y="-73.3" font-family="Times,serif" font-size="14.00">create</text>
<text text-anchor="start" x="-225.5" y="-58.3" font-family="Times,serif" font-size="14.00">destroy</text>
<text text-anchor="start" x="-225.5" y="-43.3" font-family="Times,serif" font-size="14.00">index</text>
<text text-anchor="start" x="-225.5" y="-28.3" font-family="Times,serif" font-size="14.00">show</text>
<text text-anchor="start" x="-225.5" y="-13.3" font-family="Times,serif" font-size="14.00">update</text>
<polyline fill="none" stroke="black" points="-233.5,-5.5 -98.5,-5.5 "/>
<polyline fill="none" stroke="black" points="-233.5,18.5 -98.5,18.5 "/>
<text text-anchor="start" x="-225.5" y="33.7" font-family="Times,serif" font-size="14.00">check_owner</text>
<text text-anchor="start" x="-225.5" y="48.7" font-family="Times,serif" font-size="14.00">comentari_params</text>
<text text-anchor="start" x="-225.5" y="63.7" font-family="Times,serif" font-size="14.00">find_comentari</text>
</g>
</g>
</svg>
