<?xml version="1.0" encoding="UTF-8" standalone="no"?>
<!DOCTYPE svg PUBLIC "-//W3C//DTD SVG 1.1//EN"
 "http://www.w3.org/Graphics/SVG/1.1/DTD/svg11.dtd">
<!-- Generated by graphviz version 2.38.0 (20140413.2041)
 -->
<!-- Title: models_diagram Pages: 1 -->
<svg width="684pt" height="551pt"
 viewBox="0.00 0.00 683.50 551.00" xmlns="http://www.w3.org/2000/svg" xmlns:xlink="http://www.w3.org/1999/xlink">
<g id="graph0" class="graph" transform="scale(1 1) rotate(0) translate(4 547)">
<title>models_diagram</title>
<polygon fill="none" stroke="none" points="-4,4 -4,-547 679.5,-547 679.5,4 -4,4"/>
<!-- _diagram_info -->
<g id="node1" class="node"><title>_diagram_info</title>
<text text-anchor="start" x="8" y="-484.1" font-family="Times,serif" font-size="13.00">Models diagram</text>
<text text-anchor="start" x="8" y="-470.1" font-family="Times,serif" font-size="13.00">Date: Dec 01 2017 &#45; 14:48</text>
<text text-anchor="start" x="8" y="-456.1" font-family="Times,serif" font-size="13.00">Migration version: 20171201115013</text>
<text text-anchor="start" x="8" y="-442.1" font-family="Times,serif" font-size="13.00">Generated by RailRoady 1.5.3</text>
<text text-anchor="start" x="8" y="-428.1" font-family="Times,serif" font-size="13.00">http://railroady.prestonlee.com</text>
</g>
<!-- ApplicationRecord -->
<g id="node2" class="node"><title>ApplicationRecord</title>
<ellipse fill="none" stroke="black" cx="309" cy="-459.5" rx="77.1866" ry="18"/>
<text text-anchor="middle" x="309" y="-455.8" font-family="Times,serif" font-size="14.00">ApplicationRecord</text>
</g>
<!-- User -->
<g id="node3" class="node"><title>User</title>
<path fill="none" stroke="black" d="M416.5,-376.5C416.5,-376.5 541.5,-376.5 541.5,-376.5 547.5,-376.5 553.5,-382.5 553.5,-388.5 553.5,-388.5 553.5,-530.5 553.5,-530.5 553.5,-536.5 547.5,-542.5 541.5,-542.5 541.5,-542.5 416.5,-542.5 416.5,-542.5 410.5,-542.5 404.5,-536.5 404.5,-530.5 404.5,-530.5 404.5,-388.5 404.5,-388.5 404.5,-382.5 410.5,-376.5 416.5,-376.5"/>
<text text-anchor="middle" x="479" y="-527.3" font-family="Times,serif" font-size="14.00">User</text>
<polyline fill="none" stroke="black" points="404.5,-519.5 553.5,-519.5 "/>
<text text-anchor="start" x="412.5" y="-504.3" font-family="Times,serif" font-size="14.00">id :INTEGER</text>
<text text-anchor="start" x="412.5" y="-489.3" font-family="Times,serif" font-size="14.00">name :varchar</text>
<text text-anchor="start" x="412.5" y="-474.3" font-family="Times,serif" font-size="14.00">image_url :varchar</text>
<text text-anchor="start" x="412.5" y="-459.3" font-family="Times,serif" font-size="14.00">platform_name :varchar</text>
<text text-anchor="start" x="412.5" y="-444.3" font-family="Times,serif" font-size="14.00">active_token :varchar</text>
<text text-anchor="start" x="412.5" y="-429.3" font-family="Times,serif" font-size="14.00">created_at :datetime</text>
<text text-anchor="start" x="412.5" y="-414.3" font-family="Times,serif" font-size="14.00">updated_at :datetime</text>
<text text-anchor="start" x="412.5" y="-399.3" font-family="Times,serif" font-size="14.00">email :varchar</text>
<text text-anchor="start" x="412.5" y="-384.3" font-family="Times,serif" font-size="14.00">coins :integer</text>
</g>
<!-- Shop -->
<g id="node4" class="node"><title>Shop</title>
<path fill="none" stroke="black" d="M284.5,-181C284.5,-181 391.5,-181 391.5,-181 397.5,-181 403.5,-187 403.5,-193 403.5,-193 403.5,-320 403.5,-320 403.5,-326 397.5,-332 391.5,-332 391.5,-332 284.5,-332 284.5,-332 278.5,-332 272.5,-326 272.5,-320 272.5,-320 272.5,-193 272.5,-193 272.5,-187 278.5,-181 284.5,-181"/>
<text text-anchor="middle" x="338" y="-316.8" font-family="Times,serif" font-size="14.00">Shop</text>
<polyline fill="none" stroke="black" points="272.5,-309 403.5,-309 "/>
<text text-anchor="start" x="280.5" y="-293.8" font-family="Times,serif" font-size="14.00">id :INTEGER</text>
<text text-anchor="start" x="280.5" y="-278.8" font-family="Times,serif" font-size="14.00">name :varchar</text>
<text text-anchor="start" x="280.5" y="-263.8" font-family="Times,serif" font-size="14.00">description :text</text>
<text text-anchor="start" x="280.5" y="-248.8" font-family="Times,serif" font-size="14.00">latitude :float</text>
<text text-anchor="start" x="280.5" y="-233.8" font-family="Times,serif" font-size="14.00">longitude :float</text>
<text text-anchor="start" x="280.5" y="-218.8" font-family="Times,serif" font-size="14.00">created_at :datetime</text>
<text text-anchor="start" x="280.5" y="-203.8" font-family="Times,serif" font-size="14.00">updated_at :datetime</text>
<text text-anchor="start" x="280.5" y="-188.8" font-family="Times,serif" font-size="14.00">user_id :integer</text>
</g>
<!-- User&#45;&gt;Shop -->
<g id="edge4" class="edge"><title>User&#45;&gt;Shop</title>
<path fill="none" stroke="#cc5358" d="M416.847,-369.898C409.601,-359.569 402.235,-349.07 395.063,-338.845"/>
<ellipse fill="none" stroke="#cc5358" cx="419.149" cy="-373.181" rx="4.00002" ry="4.00002"/>
<ellipse fill="#cc5358" stroke="#cc5358" cx="392.678" cy="-335.445" rx="4.00002" ry="4.00002"/>
</g>
<!-- Bid -->
<g id="node5" class="node"><title>Bid</title>
<path fill="none" stroke="black" d="M388.5,-8C388.5,-8 495.5,-8 495.5,-8 501.5,-8 507.5,-14 507.5,-20 507.5,-20 507.5,-117 507.5,-117 507.5,-123 501.5,-129 495.5,-129 495.5,-129 388.5,-129 388.5,-129 382.5,-129 376.5,-123 376.5,-117 376.5,-117 376.5,-20 376.5,-20 376.5,-14 382.5,-8 388.5,-8"/>
<text text-anchor="middle" x="442" y="-113.8" font-family="Times,serif" font-size="14.00">Bid</text>
<polyline fill="none" stroke="black" points="376.5,-106 507.5,-106 "/>
<text text-anchor="start" x="384.5" y="-90.8" font-family="Times,serif" font-size="14.00">id :INTEGER</text>
<text text-anchor="start" x="384.5" y="-75.8" font-family="Times,serif" font-size="14.00">anunci_id :integer</text>
<text text-anchor="start" x="384.5" y="-60.8" font-family="Times,serif" font-size="14.00">user_id :integer</text>
<text text-anchor="start" x="384.5" y="-45.8" font-family="Times,serif" font-size="14.00">amount :integer</text>
<text text-anchor="start" x="384.5" y="-30.8" font-family="Times,serif" font-size="14.00">created_at :datetime</text>
<text text-anchor="start" x="384.5" y="-15.8" font-family="Times,serif" font-size="14.00">updated_at :datetime</text>
</g>
<!-- User&#45;&gt;Bid -->
<g id="edge3" class="edge"><title>User&#45;&gt;Bid</title>
<path fill="none" stroke="#f8f1ba" d="M456.621,-368.328C454.809,-358.808 453.212,-349.235 452,-340 443.11,-272.261 441.092,-194.222 441.008,-139.428"/>
<ellipse fill="none" stroke="#f8f1ba" cx="457.419" cy="-372.379" rx="4.00001" ry="4.00001"/>
<polygon fill="#f8f1ba" stroke="#f8f1ba" points="441.008,-139.132 445.515,-129.135 441.012,-134.132 441.015,-129.132 441.015,-129.132 441.015,-129.132 441.012,-134.132 436.515,-129.129 441.008,-139.132 441.008,-139.132"/>
</g>
<!-- Comentari -->
<g id="node6" class="node"><title>Comentari</title>
<path fill="none" stroke="black" d="M556.5,-0.5C556.5,-0.5 663.5,-0.5 663.5,-0.5 669.5,-0.5 675.5,-6.5 675.5,-12.5 675.5,-12.5 675.5,-124.5 675.5,-124.5 675.5,-130.5 669.5,-136.5 663.5,-136.5 663.5,-136.5 556.5,-136.5 556.5,-136.5 550.5,-136.5 544.5,-130.5 544.5,-124.5 544.5,-124.5 544.5,-12.5 544.5,-12.5 544.5,-6.5 550.5,-0.5 556.5,-0.5"/>
<text text-anchor="middle" x="610" y="-121.3" font-family="Times,serif" font-size="14.00">Comentari</text>
<polyline fill="none" stroke="black" points="544.5,-113.5 675.5,-113.5 "/>
<text text-anchor="start" x="552.5" y="-98.3" font-family="Times,serif" font-size="14.00">id :INTEGER</text>
<text text-anchor="start" x="552.5" y="-83.3" font-family="Times,serif" font-size="14.00">text :text</text>
<text text-anchor="start" x="552.5" y="-68.3" font-family="Times,serif" font-size="14.00">user_id :integer</text>
<text text-anchor="start" x="552.5" y="-53.3" font-family="Times,serif" font-size="14.00">anunci_id :integer</text>
<text text-anchor="start" x="552.5" y="-38.3" font-family="Times,serif" font-size="14.00">created_at :datetime</text>
<text text-anchor="start" x="552.5" y="-23.3" font-family="Times,serif" font-size="14.00">updated_at :datetime</text>
<text text-anchor="start" x="552.5" y="-8.3" font-family="Times,serif" font-size="14.00">reward :integer</text>
</g>
<!-- User&#45;&gt;Comentari -->
<g id="edge2" class="edge"><title>User&#45;&gt;Comentari</title>
<path fill="none" stroke="#36e187" d="M559.892,-397.367C576.398,-380.694 591.582,-361.283 601,-340 627.939,-279.121 627.817,-202.774 622.335,-146.728"/>
<ellipse fill="none" stroke="#36e187" cx="556.614" cy="-400.584" rx="4.00002" ry="4.00002"/>
<polygon fill="#36e187" stroke="#36e187" points="622.306,-146.452 625.729,-136.034 621.78,-141.479 621.254,-136.507 621.254,-136.507 621.254,-136.507 621.78,-141.479 616.779,-136.98 622.306,-146.452 622.306,-146.452"/>
</g>
<!-- Anunci -->
<g id="node7" class="node"><title>Anunci</title>
<path fill="none" stroke="black" d="M472.5,-173.5C472.5,-173.5 579.5,-173.5 579.5,-173.5 585.5,-173.5 591.5,-179.5 591.5,-185.5 591.5,-185.5 591.5,-327.5 591.5,-327.5 591.5,-333.5 585.5,-339.5 579.5,-339.5 579.5,-339.5 472.5,-339.5 472.5,-339.5 466.5,-339.5 460.5,-333.5 460.5,-327.5 460.5,-327.5 460.5,-185.5 460.5,-185.5 460.5,-179.5 466.5,-173.5 472.5,-173.5"/>
<text text-anchor="middle" x="526" y="-324.3" font-family="Times,serif" font-size="14.00">Anunci</text>
<polyline fill="none" stroke="black" points="460.5,-316.5 591.5,-316.5 "/>
<text text-anchor="start" x="468.5" y="-301.3" font-family="Times,serif" font-size="14.00">id :INTEGER</text>
<text text-anchor="start" x="468.5" y="-286.3" font-family="Times,serif" font-size="14.00">title :varchar</text>
<text text-anchor="start" x="468.5" y="-271.3" font-family="Times,serif" font-size="14.00">description :text</text>
<text text-anchor="start" x="468.5" y="-256.3" font-family="Times,serif" font-size="14.00">latitude :float</text>
<text text-anchor="start" x="468.5" y="-241.3" font-family="Times,serif" font-size="14.00">longitude :float</text>
<text text-anchor="start" x="468.5" y="-226.3" font-family="Times,serif" font-size="14.00">reward :integer</text>
<text text-anchor="start" x="468.5" y="-211.3" font-family="Times,serif" font-size="14.00">user_id :integer</text>
<text text-anchor="start" x="468.5" y="-196.3" font-family="Times,serif" font-size="14.00">created_at :datetime</text>
<text text-anchor="start" x="468.5" y="-181.3" font-family="Times,serif" font-size="14.00">updated_at :datetime</text>
</g>
<!-- User&#45;&gt;Anunci -->
<g id="edge1" class="edge"><title>User&#45;&gt;Anunci</title>
<path fill="none" stroke="#bf0eaa" d="M500.061,-368.431C501.534,-362.133 503.019,-355.779 504.495,-349.47"/>
<ellipse fill="none" stroke="#bf0eaa" cx="499.095" cy="-372.561" rx="4.00001" ry="4.00001"/>
<polygon fill="#bf0eaa" stroke="#bf0eaa" points="504.524,-349.345 511.182,-340.632 505.662,-344.476 506.801,-339.608 506.801,-339.608 506.801,-339.608 505.662,-344.476 502.419,-338.583 504.524,-349.345 504.524,-349.345"/>
</g>
<!-- Anunci&#45;&gt;Bid -->
<g id="edge6" class="edge"><title>Anunci&#45;&gt;Bid</title>
<path fill="none" stroke="#fbc6e1" d="M485.592,-166.024C481.397,-156.736 477.181,-147.4 473.111,-138.389"/>
<ellipse fill="none" stroke="#fbc6e1" cx="487.265" cy="-169.731" rx="4.00002" ry="4.00002"/>
<polygon fill="#fbc6e1" stroke="#fbc6e1" points="473.046,-138.245 473.031,-127.279 470.988,-133.688 468.93,-129.131 468.93,-129.131 468.93,-129.131 470.988,-133.688 464.829,-130.983 473.046,-138.245 473.046,-138.245"/>
</g>
<!-- Anunci&#45;&gt;Comentari -->
<g id="edge5" class="edge"><title>Anunci&#45;&gt;Comentari</title>
<path fill="none" stroke="#5381f1" d="M566.474,-165.88C569.455,-159.278 572.447,-152.654 575.388,-146.14"/>
<ellipse fill="none" stroke="#5381f1" cx="564.735" cy="-169.731" rx="4.00002" ry="4.00002"/>
<polygon fill="#5381f1" stroke="#5381f1" points="575.54,-145.805 583.757,-138.544 577.598,-141.248 579.656,-136.691 579.656,-136.691 579.656,-136.691 577.598,-141.248 575.554,-134.839 575.54,-145.805 575.54,-145.805"/>
</g>
</g>
</svg>
