<?xml version="1.0" encoding="UTF-8" standalone="no"?>
<!DOCTYPE svg PUBLIC "-//W3C//DTD SVG 1.1//EN"
 "http://www.w3.org/Graphics/SVG/1.1/DTD/svg11.dtd">
<!-- Generated by graphviz version 2.36.0 (20140111.2315)
 -->
<!-- Title: models_diagram Pages: 1 -->
<svg width="560pt" height="554pt"
 viewBox="0.00 0.00 560.00 554.00" xmlns="http://www.w3.org/2000/svg" xmlns:xlink="http://www.w3.org/1999/xlink">
<g id="graph0" class="graph" transform="scale(1 1) rotate(0) translate(4 550)">
<title>models_diagram</title>
<polygon fill="none" stroke="none" points="-4,4 -4,-550 556,-550 556,4 -4,4"/>
<!-- _diagram_info -->
<g id="node1" class="node"><title>_diagram_info</title>
<text text-anchor="start" x="7" y="-486.6" font-family="Times,serif" font-size="13.00">Models diagram</text>
<text text-anchor="start" x="7" y="-472.6" font-family="Times,serif" font-size="13.00">Date: Nov 17 2017 &#45; 13:38</text>
<text text-anchor="start" x="7" y="-458.6" font-family="Times,serif" font-size="13.00">Migration version: 20171116195445</text>
<text text-anchor="start" x="7" y="-444.6" font-family="Times,serif" font-size="13.00">Generated by RailRoady 1.5.3</text>
<text text-anchor="start" x="7" y="-430.6" font-family="Times,serif" font-size="13.00">http://railroady.prestonlee.com</text>
</g>
<!-- Anunci -->
<g id="node2" class="node"><title>Anunci</title>
<path fill="none" stroke="black" d="M204.5,-175C204.5,-175 311.5,-175 311.5,-175 317.5,-175 323.5,-181 323.5,-187 323.5,-187 323.5,-329 323.5,-329 323.5,-335 317.5,-341 311.5,-341 311.5,-341 204.5,-341 204.5,-341 198.5,-341 192.5,-335 192.5,-329 192.5,-329 192.5,-187 192.5,-187 192.5,-181 198.5,-175 204.5,-175"/>
<text text-anchor="middle" x="258" y="-325.8" font-family="Times,serif" font-size="14.00">Anunci</text>
<polyline fill="none" stroke="black" points="192.5,-318 323.5,-318 "/>
<text text-anchor="start" x="200.5" y="-302.8" font-family="Times,serif" font-size="14.00">id :INTEGER</text>
<text text-anchor="start" x="200.5" y="-287.8" font-family="Times,serif" font-size="14.00">title :varchar</text>
<text text-anchor="start" x="200.5" y="-272.8" font-family="Times,serif" font-size="14.00">description :text</text>
<text text-anchor="start" x="200.5" y="-257.8" font-family="Times,serif" font-size="14.00">latitude :float</text>
<text text-anchor="start" x="200.5" y="-242.8" font-family="Times,serif" font-size="14.00">longitude :float</text>
<text text-anchor="start" x="200.5" y="-227.8" font-family="Times,serif" font-size="14.00">reward :integer</text>
<text text-anchor="start" x="200.5" y="-212.8" font-family="Times,serif" font-size="14.00">user_id :integer</text>
<text text-anchor="start" x="200.5" y="-197.8" font-family="Times,serif" font-size="14.00">created_at :datetime</text>
<text text-anchor="start" x="200.5" y="-182.8" font-family="Times,serif" font-size="14.00">updated_at :datetime</text>
</g>
<!-- Comentari -->
<g id="node4" class="node"><title>Comentari</title>
<path fill="none" stroke="black" d="M251.5,-1C251.5,-1 358.5,-1 358.5,-1 364.5,-1 370.5,-7 370.5,-13 370.5,-13 370.5,-125 370.5,-125 370.5,-131 364.5,-137 358.5,-137 358.5,-137 251.5,-137 251.5,-137 245.5,-137 239.5,-131 239.5,-125 239.5,-125 239.5,-13 239.5,-13 239.5,-7 245.5,-1 251.5,-1"/>
<text text-anchor="middle" x="305" y="-121.8" font-family="Times,serif" font-size="14.00">Comentari</text>
<polyline fill="none" stroke="black" points="239.5,-114 370.5,-114 "/>
<text text-anchor="start" x="247.5" y="-98.8" font-family="Times,serif" font-size="14.00">id :INTEGER</text>
<text text-anchor="start" x="247.5" y="-83.8" font-family="Times,serif" font-size="14.00">text :text</text>
<text text-anchor="start" x="247.5" y="-68.8" font-family="Times,serif" font-size="14.00">user_id :integer</text>
<text text-anchor="start" x="247.5" y="-53.8" font-family="Times,serif" font-size="14.00">anunci_id :integer</text>
<text text-anchor="start" x="247.5" y="-38.8" font-family="Times,serif" font-size="14.00">created_at :datetime</text>
<text text-anchor="start" x="247.5" y="-23.8" font-family="Times,serif" font-size="14.00">updated_at :datetime</text>
<text text-anchor="start" x="247.5" y="-8.8" font-family="Times,serif" font-size="14.00">reward :integer</text>
</g>
<!-- Anunci&#45;&gt;Comentari -->
<g id="edge1" class="edge"><title>Anunci&#45;&gt;Comentari</title>
<path fill="none" stroke="#f5a941" d="M280.636,-166.939C282.293,-160.343 283.957,-153.725 285.593,-147.215"/>
<ellipse fill="none" stroke="#f5a941" cx="279.59" cy="-171.1" rx="4.00001" ry="4.00001"/>
<polygon fill="#f5a941" stroke="#f5a941" points="285.699,-146.792 292.501,-138.19 286.918,-141.943 288.137,-137.093 288.137,-137.093 288.137,-137.093 286.918,-141.943 283.773,-135.996 285.699,-146.792 285.699,-146.792"/>
</g>
<!-- User -->
<g id="node3" class="node"><title>User</title>
<path fill="none" stroke="black" d="M242.5,-379C242.5,-379 367.5,-379 367.5,-379 373.5,-379 379.5,-385 379.5,-391 379.5,-391 379.5,-533 379.5,-533 379.5,-539 373.5,-545 367.5,-545 367.5,-545 242.5,-545 242.5,-545 236.5,-545 230.5,-539 230.5,-533 230.5,-533 230.5,-391 230.5,-391 230.5,-385 236.5,-379 242.5,-379"/>
<text text-anchor="middle" x="305" y="-529.8" font-family="Times,serif" font-size="14.00">User</text>
<polyline fill="none" stroke="black" points="230.5,-522 379.5,-522 "/>
<text text-anchor="start" x="238.5" y="-506.8" font-family="Times,serif" font-size="14.00">id :INTEGER</text>
<text text-anchor="start" x="238.5" y="-491.8" font-family="Times,serif" font-size="14.00">name :varchar</text>
<text text-anchor="start" x="238.5" y="-476.8" font-family="Times,serif" font-size="14.00">image_url :varchar</text>
<text text-anchor="start" x="238.5" y="-461.8" font-family="Times,serif" font-size="14.00">platform_name :varchar</text>
<text text-anchor="start" x="238.5" y="-446.8" font-family="Times,serif" font-size="14.00">active_token :varchar</text>
<text text-anchor="start" x="238.5" y="-431.8" font-family="Times,serif" font-size="14.00">created_at :datetime</text>
<text text-anchor="start" x="238.5" y="-416.8" font-family="Times,serif" font-size="14.00">updated_at :datetime</text>
<text text-anchor="start" x="238.5" y="-401.8" font-family="Times,serif" font-size="14.00">email :varchar</text>
<text text-anchor="start" x="238.5" y="-386.8" font-family="Times,serif" font-size="14.00">coins :integer</text>
</g>
<!-- User&#45;&gt;Anunci -->
<g id="edge2" class="edge"><title>User&#45;&gt;Anunci</title>
<path fill="none" stroke="#4031eb" d="M284.039,-370.914C282.523,-364.397 280.993,-357.82 279.474,-351.291"/>
<ellipse fill="none" stroke="#4031eb" cx="284.977" cy="-374.943" rx="4.00001" ry="4.00001"/>
<polygon fill="#4031eb" stroke="#4031eb" points="279.366,-350.828 281.483,-340.068 278.233,-345.958 277.1,-341.088 277.1,-341.088 277.1,-341.088 278.233,-345.958 272.717,-342.108 279.366,-350.828 279.366,-350.828"/>
</g>
<!-- User&#45;&gt;Comentari -->
<g id="edge3" class="edge"><title>User&#45;&gt;Comentari</title>
<path fill="none" stroke="#098f2e" d="M327.683,-370.741C329.448,-361.09 330.95,-351.375 332,-342 340.312,-267.797 341.457,-248.065 332,-174 330.872,-165.167 329.226,-156.013 327.294,-146.963"/>
<ellipse fill="none" stroke="#098f2e" cx="326.892" cy="-374.896" rx="4.00001" ry="4.00001"/>
<polygon fill="#098f2e" stroke="#098f2e" points="327.294,-146.961 329.487,-136.217 326.196,-142.083 325.097,-137.205 325.097,-137.205 325.097,-137.205 326.196,-142.083 320.707,-138.194 327.294,-146.961 327.294,-146.961"/>
</g>
<!-- ApplicationRecord -->
<g id="node5" class="node"><title>ApplicationRecord</title>
<ellipse fill="none" stroke="black" cx="475" cy="-462" rx="77.0154" ry="18"/>
<text text-anchor="middle" x="475" y="-458.3" font-family="Times,serif" font-size="14.00">ApplicationRecord</text>
</g>
</g>
</svg>
