<?xml version="1.0" encoding="UTF-8" standalone="no"?>
<!DOCTYPE svg PUBLIC "-//W3C//DTD SVG 1.1//EN"
 "http://www.w3.org/Graphics/SVG/1.1/DTD/svg11.dtd">
<!-- Generated by graphviz version 2.36.0 (20140111.2315)
 -->
<!-- Title: models_diagram Pages: 1 -->
<svg width="621pt" height="616pt"
 viewBox="0.00 0.00 621.00 616.00" xmlns="http://www.w3.org/2000/svg" xmlns:xlink="http://www.w3.org/1999/xlink">
<g id="graph0" class="graph" transform="scale(1 1) rotate(0) translate(4 612)">
<title>models_diagram</title>
<polygon fill="none" stroke="none" points="-4,4 -4,-612 617,-612 617,4 -4,4"/>
<!-- _diagram_info -->
<g id="node1" class="node"><title>_diagram_info</title>
<text text-anchor="start" x="7" y="-548.6" font-family="Times,serif" font-size="13.00">Models diagram</text>
<text text-anchor="start" x="7" y="-534.6" font-family="Times,serif" font-size="13.00">Date: Dec 11 2017 &#45; 16:10</text>
<text text-anchor="start" x="7" y="-520.6" font-family="Times,serif" font-size="13.00">Migration version: 20171207152751</text>
<text text-anchor="start" x="7" y="-506.6" font-family="Times,serif" font-size="13.00">Generated by RailRoady 1.5.3</text>
<text text-anchor="start" x="7" y="-492.6" font-family="Times,serif" font-size="13.00">http://railroady.prestonlee.com</text>
</g>
<!-- Anunci -->
<g id="node2" class="node"><title>Anunci</title>
<path fill="none" stroke="black" d="M147,-205C147,-205 265,-205 265,-205 271,-205 277,-211 277,-217 277,-217 277,-389 277,-389 277,-395 271,-401 265,-401 265,-401 147,-401 147,-401 141,-401 135,-395 135,-389 135,-389 135,-217 135,-217 135,-211 141,-205 147,-205"/>
<text text-anchor="middle" x="206" y="-385.8" font-family="Times,serif" font-size="14.00">Anunci</text>
<polyline fill="none" stroke="black" points="135,-378 277,-378 "/>
<text text-anchor="start" x="143" y="-362.8" font-family="Times,serif" font-size="14.00">id :INTEGER</text>
<text text-anchor="start" x="143" y="-347.8" font-family="Times,serif" font-size="14.00">title :varchar</text>
<text text-anchor="start" x="143" y="-332.8" font-family="Times,serif" font-size="14.00">description :text</text>
<text text-anchor="start" x="143" y="-317.8" font-family="Times,serif" font-size="14.00">latitude :float</text>
<text text-anchor="start" x="143" y="-302.8" font-family="Times,serif" font-size="14.00">longitude :float</text>
<text text-anchor="start" x="143" y="-287.8" font-family="Times,serif" font-size="14.00">reward :integer</text>
<text text-anchor="start" x="143" y="-272.8" font-family="Times,serif" font-size="14.00">user_id :integer</text>
<text text-anchor="start" x="143" y="-257.8" font-family="Times,serif" font-size="14.00">created_at :datetime</text>
<text text-anchor="start" x="143" y="-242.8" font-family="Times,serif" font-size="14.00">updated_at :datetime</text>
<text text-anchor="start" x="143" y="-227.8" font-family="Times,serif" font-size="14.00">status :varchar</text>
<text text-anchor="start" x="143" y="-212.8" font-family="Times,serif" font-size="14.00">selectedBid_id :integer</text>
</g>
<!-- Comentari -->
<g id="node5" class="node"><title>Comentari</title>
<path fill="none" stroke="black" d="M251.5,-8C251.5,-8 358.5,-8 358.5,-8 364.5,-8 370.5,-14 370.5,-20 370.5,-20 370.5,-132 370.5,-132 370.5,-138 364.5,-144 358.5,-144 358.5,-144 251.5,-144 251.5,-144 245.5,-144 239.5,-138 239.5,-132 239.5,-132 239.5,-20 239.5,-20 239.5,-14 245.5,-8 251.5,-8"/>
<text text-anchor="middle" x="305" y="-128.8" font-family="Times,serif" font-size="14.00">Comentari</text>
<polyline fill="none" stroke="black" points="239.5,-121 370.5,-121 "/>
<text text-anchor="start" x="247.5" y="-105.8" font-family="Times,serif" font-size="14.00">id :INTEGER</text>
<text text-anchor="start" x="247.5" y="-90.8" font-family="Times,serif" font-size="14.00">text :text</text>
<text text-anchor="start" x="247.5" y="-75.8" font-family="Times,serif" font-size="14.00">user_id :integer</text>
<text text-anchor="start" x="247.5" y="-60.8" font-family="Times,serif" font-size="14.00">anunci_id :integer</text>
<text text-anchor="start" x="247.5" y="-45.8" font-family="Times,serif" font-size="14.00">created_at :datetime</text>
<text text-anchor="start" x="247.5" y="-30.8" font-family="Times,serif" font-size="14.00">updated_at :datetime</text>
<text text-anchor="start" x="247.5" y="-15.8" font-family="Times,serif" font-size="14.00">reward :integer</text>
</g>
<!-- Anunci&#45;&gt;Comentari -->
<g id="edge1" class="edge"><title>Anunci&#45;&gt;Comentari</title>
<path fill="none" stroke="#88c4b9" d="M252.091,-197.249C258.531,-182.612 265.048,-167.8 271.204,-153.809"/>
<ellipse fill="none" stroke="#88c4b9" cx="250.314" cy="-201.286" rx="4.00002" ry="4.00002"/>
<polygon fill="#88c4b9" stroke="#88c4b9" points="271.375,-153.42 279.521,-146.079 273.389,-148.843 275.403,-144.267 275.403,-144.267 275.403,-144.267 273.389,-148.843 271.284,-142.455 271.375,-153.42 271.375,-153.42"/>
</g>
<!-- Bid -->
<g id="node9" class="node"><title>Bid</title>
<path fill="none" stroke="black" d="M102.5,-8C102.5,-8 209.5,-8 209.5,-8 215.5,-8 221.5,-14 221.5,-20 221.5,-20 221.5,-132 221.5,-132 221.5,-138 215.5,-144 209.5,-144 209.5,-144 102.5,-144 102.5,-144 96.5,-144 90.5,-138 90.5,-132 90.5,-132 90.5,-20 90.5,-20 90.5,-14 96.5,-8 102.5,-8"/>
<text text-anchor="middle" x="156" y="-128.8" font-family="Times,serif" font-size="14.00">Bid</text>
<polyline fill="none" stroke="black" points="90.5,-121 221.5,-121 "/>
<text text-anchor="start" x="98.5" y="-105.8" font-family="Times,serif" font-size="14.00">id :INTEGER</text>
<text text-anchor="start" x="98.5" y="-90.8" font-family="Times,serif" font-size="14.00">anunci_id :integer</text>
<text text-anchor="start" x="98.5" y="-75.8" font-family="Times,serif" font-size="14.00">user_id :integer</text>
<text text-anchor="start" x="98.5" y="-60.8" font-family="Times,serif" font-size="14.00">amount :integer</text>
<text text-anchor="start" x="98.5" y="-45.8" font-family="Times,serif" font-size="14.00">created_at :datetime</text>
<text text-anchor="start" x="98.5" y="-30.8" font-family="Times,serif" font-size="14.00">updated_at :datetime</text>
<text text-anchor="start" x="98.5" y="-15.8" font-family="Times,serif" font-size="14.00">accepted :boolean</text>
</g>
<!-- Anunci&#45;&gt;Bid -->
<g id="edge2" class="edge"><title>Anunci&#45;&gt;Bid</title>
<path fill="none" stroke="#61f8dd" d="M174.476,-196.796C173.607,-193.162 172.778,-189.556 172,-186 169.769,-175.805 167.762,-165.005 165.986,-154.32"/>
<ellipse fill="none" stroke="#61f8dd" cx="175.484" cy="-200.901" rx="4.00001" ry="4.00001"/>
<polygon fill="#61f8dd" stroke="#61f8dd" points="165.936,-154.009 168.796,-143.422 165.144,-149.072 164.353,-144.135 164.353,-144.135 164.353,-144.135 165.144,-149.072 159.909,-144.847 165.936,-154.009 165.936,-154.009"/>
</g>
<!-- Anunci&#45;&gt;Bid -->
<g id="edge3" class="edge"><title>Anunci&#45;&gt;Bid</title>
<path fill="none" stroke="#8c80c4" d="M182.615,-196.766C179.266,-181.698 175.879,-166.456 172.695,-152.127"/>
<ellipse fill="none" stroke="#8c80c4" cx="183.565" cy="-201.042" rx="4.00001" ry="4.00001"/>
<ellipse fill="#8c80c4" stroke="#8c80c4" cx="171.816" cy="-148.172" rx="4.00001" ry="4.00001"/>
<text text-anchor="middle" x="211" y="-174.3" font-family="Times,serif" font-size="14.00">selectedBid</text>
</g>
<!-- User -->
<g id="node3" class="node"><title>User</title>
<path fill="none" stroke="black" d="M242.5,-441C242.5,-441 367.5,-441 367.5,-441 373.5,-441 379.5,-447 379.5,-453 379.5,-453 379.5,-595 379.5,-595 379.5,-601 373.5,-607 367.5,-607 367.5,-607 242.5,-607 242.5,-607 236.5,-607 230.5,-601 230.5,-595 230.5,-595 230.5,-453 230.5,-453 230.5,-447 236.5,-441 242.5,-441"/>
<text text-anchor="middle" x="305" y="-591.8" font-family="Times,serif" font-size="14.00">User</text>
<polyline fill="none" stroke="black" points="230.5,-584 379.5,-584 "/>
<text text-anchor="start" x="238.5" y="-568.8" font-family="Times,serif" font-size="14.00">id :INTEGER</text>
<text text-anchor="start" x="238.5" y="-553.8" font-family="Times,serif" font-size="14.00">name :varchar</text>
<text text-anchor="start" x="238.5" y="-538.8" font-family="Times,serif" font-size="14.00">image_url :varchar</text>
<text text-anchor="start" x="238.5" y="-523.8" font-family="Times,serif" font-size="14.00">platform_name :varchar</text>
<text text-anchor="start" x="238.5" y="-508.8" font-family="Times,serif" font-size="14.00">active_token :varchar</text>
<text text-anchor="start" x="238.5" y="-493.8" font-family="Times,serif" font-size="14.00">created_at :datetime</text>
<text text-anchor="start" x="238.5" y="-478.8" font-family="Times,serif" font-size="14.00">updated_at :datetime</text>
<text text-anchor="start" x="238.5" y="-463.8" font-family="Times,serif" font-size="14.00">email :varchar</text>
<text text-anchor="start" x="238.5" y="-448.8" font-family="Times,serif" font-size="14.00">coins :integer</text>
</g>
<!-- User&#45;&gt;Anunci -->
<g id="edge4" class="edge"><title>User&#45;&gt;Anunci</title>
<path fill="none" stroke="#1edf77" d="M264.528,-433.472C261.053,-425.784 257.516,-417.961 253.99,-410.159"/>
<ellipse fill="none" stroke="#1edf77" cx="266.207" cy="-437.185" rx="4.00002" ry="4.00002"/>
<polygon fill="#1edf77" stroke="#1edf77" points="253.978,-410.134 253.96,-399.168 251.919,-405.578 249.859,-401.022 249.859,-401.022 249.859,-401.022 251.919,-405.578 245.759,-402.875 253.978,-410.134 253.978,-410.134"/>
</g>
<!-- Shop -->
<g id="node4" class="node"><title>Shop</title>
<path fill="none" stroke="black" d="M494.5,-227.5C494.5,-227.5 601.5,-227.5 601.5,-227.5 607.5,-227.5 613.5,-233.5 613.5,-239.5 613.5,-239.5 613.5,-366.5 613.5,-366.5 613.5,-372.5 607.5,-378.5 601.5,-378.5 601.5,-378.5 494.5,-378.5 494.5,-378.5 488.5,-378.5 482.5,-372.5 482.5,-366.5 482.5,-366.5 482.5,-239.5 482.5,-239.5 482.5,-233.5 488.5,-227.5 494.5,-227.5"/>
<text text-anchor="middle" x="548" y="-363.3" font-family="Times,serif" font-size="14.00">Shop</text>
<polyline fill="none" stroke="black" points="482.5,-355.5 613.5,-355.5 "/>
<text text-anchor="start" x="490.5" y="-340.3" font-family="Times,serif" font-size="14.00">id :INTEGER</text>
<text text-anchor="start" x="490.5" y="-325.3" font-family="Times,serif" font-size="14.00">name :varchar</text>
<text text-anchor="start" x="490.5" y="-310.3" font-family="Times,serif" font-size="14.00">description :text</text>
<text text-anchor="start" x="490.5" y="-295.3" font-family="Times,serif" font-size="14.00">latitude :float</text>
<text text-anchor="start" x="490.5" y="-280.3" font-family="Times,serif" font-size="14.00">longitude :float</text>
<text text-anchor="start" x="490.5" y="-265.3" font-family="Times,serif" font-size="14.00">created_at :datetime</text>
<text text-anchor="start" x="490.5" y="-250.3" font-family="Times,serif" font-size="14.00">updated_at :datetime</text>
<text text-anchor="start" x="490.5" y="-235.3" font-family="Times,serif" font-size="14.00">user_id :integer</text>
</g>
<!-- User&#45;&gt;Shop -->
<g id="edge7" class="edge"><title>User&#45;&gt;Shop</title>
<path fill="none" stroke="#864fb4" d="M386.366,-441.841C387.243,-441.218 388.121,-440.604 389,-440 422.77,-416.792 440.913,-427.484 473,-402 479.417,-396.903 485.591,-391.142 491.451,-385.028"/>
<ellipse fill="none" stroke="#864fb4" cx="382.893" cy="-444.407" rx="4.00002" ry="4.00002"/>
<ellipse fill="#864fb4" stroke="#864fb4" cx="494.488" cy="-381.745" rx="4.00002" ry="4.00002"/>
</g>
<!-- User&#45;&gt;Comentari -->
<g id="edge5" class="edge"><title>User&#45;&gt;Comentari</title>
<path fill="none" stroke="#9fd691" d="M305,-432.796C305,-350.988 305,-231.675 305,-154.187"/>
<ellipse fill="none" stroke="#9fd691" cx="305" cy="-436.937" rx="4" ry="4"/>
<polygon fill="#9fd691" stroke="#9fd691" points="305,-154.01 309.5,-144.01 305,-149.01 305,-144.01 305,-144.01 305,-144.01 305,-149.01 300.5,-144.01 305,-154.01 305,-154.01"/>
</g>
<!-- BoughtCoupon -->
<g id="node6" class="node"><title>BoughtCoupon</title>
<path fill="none" stroke="black" d="M345.5,-235C345.5,-235 452.5,-235 452.5,-235 458.5,-235 464.5,-241 464.5,-247 464.5,-247 464.5,-359 464.5,-359 464.5,-365 458.5,-371 452.5,-371 452.5,-371 345.5,-371 345.5,-371 339.5,-371 333.5,-365 333.5,-359 333.5,-359 333.5,-247 333.5,-247 333.5,-241 339.5,-235 345.5,-235"/>
<text text-anchor="middle" x="399" y="-355.8" font-family="Times,serif" font-size="14.00">BoughtCoupon</text>
<polyline fill="none" stroke="black" points="333.5,-348 464.5,-348 "/>
<text text-anchor="start" x="341.5" y="-332.8" font-family="Times,serif" font-size="14.00">id :INTEGER</text>
<text text-anchor="start" x="341.5" y="-317.8" font-family="Times,serif" font-size="14.00">title :varchar</text>
<text text-anchor="start" x="341.5" y="-302.8" font-family="Times,serif" font-size="14.00">description :text</text>
<text text-anchor="start" x="341.5" y="-287.8" font-family="Times,serif" font-size="14.00">discount :integer</text>
<text text-anchor="start" x="341.5" y="-272.8" font-family="Times,serif" font-size="14.00">user_id :integer</text>
<text text-anchor="start" x="341.5" y="-257.8" font-family="Times,serif" font-size="14.00">created_at :datetime</text>
<text text-anchor="start" x="341.5" y="-242.8" font-family="Times,serif" font-size="14.00">updated_at :datetime</text>
</g>
<!-- User&#45;&gt;BoughtCoupon -->
<g id="edge8" class="edge"><title>User&#45;&gt;BoughtCoupon</title>
<path fill="none" stroke="#274494" d="M343.524,-433.247C351.027,-415.767 358.827,-397.593 366.127,-380.587"/>
<ellipse fill="none" stroke="#274494" cx="341.847" cy="-437.154" rx="4.00002" ry="4.00002"/>
<polygon fill="#274494" stroke="#274494" points="366.181,-380.461 374.261,-373.046 368.153,-375.866 370.126,-371.271 370.126,-371.271 370.126,-371.271 368.153,-375.866 365.99,-369.496 366.181,-380.461 366.181,-380.461"/>
</g>
<!-- User&#45;&gt;Bid -->
<g id="edge6" class="edge"><title>User&#45;&gt;Bid</title>
<path fill="none" stroke="#5beff3" d="M223.672,-441.785C222.783,-441.18 221.892,-440.585 221,-440 182.961,-415.08 151.494,-439.656 126,-402 76.5456,-328.954 98.3334,-224.562 123.005,-153.961"/>
<ellipse fill="none" stroke="#5beff3" cx="227.186" cy="-444.285" rx="4.00002" ry="4.00002"/>
<polygon fill="#5beff3" stroke="#5beff3" points="123.119,-153.642 130.733,-145.751 124.809,-148.936 126.498,-144.23 126.498,-144.23 126.498,-144.23 124.809,-148.936 122.263,-142.71 123.119,-153.642 123.119,-153.642"/>
</g>
<!-- Coupon -->
<g id="node8" class="node"><title>Coupon</title>
<path fill="none" stroke="black" d="M494.5,-0.5C494.5,-0.5 601.5,-0.5 601.5,-0.5 607.5,-0.5 613.5,-6.5 613.5,-12.5 613.5,-12.5 613.5,-139.5 613.5,-139.5 613.5,-145.5 607.5,-151.5 601.5,-151.5 601.5,-151.5 494.5,-151.5 494.5,-151.5 488.5,-151.5 482.5,-145.5 482.5,-139.5 482.5,-139.5 482.5,-12.5 482.5,-12.5 482.5,-6.5 488.5,-0.5 494.5,-0.5"/>
<text text-anchor="middle" x="548" y="-136.3" font-family="Times,serif" font-size="14.00">Coupon</text>
<polyline fill="none" stroke="black" points="482.5,-128.5 613.5,-128.5 "/>
<text text-anchor="start" x="490.5" y="-113.3" font-family="Times,serif" font-size="14.00">id :INTEGER</text>
<text text-anchor="start" x="490.5" y="-98.3" font-family="Times,serif" font-size="14.00">title :varchar</text>
<text text-anchor="start" x="490.5" y="-83.3" font-family="Times,serif" font-size="14.00">description :text</text>
<text text-anchor="start" x="490.5" y="-68.3" font-family="Times,serif" font-size="14.00">price :integer</text>
<text text-anchor="start" x="490.5" y="-53.3" font-family="Times,serif" font-size="14.00">created_at :datetime</text>
<text text-anchor="start" x="490.5" y="-38.3" font-family="Times,serif" font-size="14.00">updated_at :datetime</text>
<text text-anchor="start" x="490.5" y="-23.3" font-family="Times,serif" font-size="14.00">shop_id :integer</text>
<text text-anchor="start" x="490.5" y="-8.3" font-family="Times,serif" font-size="14.00">discount :integer</text>
</g>
<!-- Shop&#45;&gt;Coupon -->
<g id="edge9" class="edge"><title>Shop&#45;&gt;Coupon</title>
<path fill="none" stroke="#f3acf8" d="M548,-219.327C548,-200.585 548,-180.653 548,-161.823"/>
<ellipse fill="none" stroke="#f3acf8" cx="548" cy="-223.391" rx="4" ry="4"/>
<polygon fill="#f3acf8" stroke="#f3acf8" points="548,-161.791 552.5,-151.791 548,-156.791 548,-151.791 548,-151.791 548,-151.791 548,-156.791 543.5,-151.791 548,-161.791 548,-161.791"/>
</g>
<!-- ApplicationRecord -->
<g id="node7" class="node"><title>ApplicationRecord</title>
<ellipse fill="none" stroke="black" cx="475" cy="-524" rx="77.0154" ry="18"/>
<text text-anchor="middle" x="475" y="-520.3" font-family="Times,serif" font-size="14.00">ApplicationRecord</text>
</g>
</g>
</svg>
