<?xml version="1.0" encoding="UTF-8" standalone="no"?>
<!DOCTYPE svg PUBLIC "-//W3C//DTD SVG 1.1//EN"
 "http://www.w3.org/Graphics/SVG/1.1/DTD/svg11.dtd">
<!-- Generated by graphviz version 2.38.0 (20140413.2041)
 -->
<!-- Title: models_diagram Pages: 1 -->
<svg width="575pt" height="230pt"
 viewBox="0.00 0.00 575.10 230.00" xmlns="http://www.w3.org/2000/svg" xmlns:xlink="http://www.w3.org/1999/xlink">
<g id="graph0" class="graph" transform="scale(1 1) rotate(0) translate(4 226)">
<title>models_diagram</title>
<polygon fill="none" stroke="none" points="-4,4 -4,-226 571.096,-226 571.096,4 -4,4"/>
<!-- _diagram_info -->
<g id="node1" class="node"><title>_diagram_info</title>
<text text-anchor="start" x="8" y="-207.6" font-family="Times,serif" font-size="13.00">Models diagram</text>
<text text-anchor="start" x="8" y="-193.6" font-family="Times,serif" font-size="13.00">Date: Dec 01 2017 &#45; 14:48</text>
<text text-anchor="start" x="8" y="-179.6" font-family="Times,serif" font-size="13.00">Migration version: 20171201115013</text>
<text text-anchor="start" x="8" y="-165.6" font-family="Times,serif" font-size="13.00">Generated by RailRoady 1.5.3</text>
<text text-anchor="start" x="8" y="-151.6" font-family="Times,serif" font-size="13.00">http://railroady.prestonlee.com</text>
</g>
<!-- ApplicationRecord -->
<g id="node2" class="node"><title>ApplicationRecord</title>
<ellipse fill="none" stroke="black" cx="309" cy="-183" rx="77.1866" ry="18"/>
<text text-anchor="middle" x="309" y="-179.3" font-family="Times,serif" font-size="14.00">ApplicationRecord</text>
</g>
<!-- User -->
<g id="node3" class="node"><title>User</title>
<ellipse fill="none" stroke="black" cx="432" cy="-183" rx="27.0966" ry="18"/>
<text text-anchor="middle" x="432" y="-179.3" font-family="Times,serif" font-size="14.00">User</text>
</g>
<!-- Shop -->
<g id="node4" class="node"><title>Shop</title>
<ellipse fill="none" stroke="black" cx="343" cy="-90" rx="28.6953" ry="18"/>
<text text-anchor="middle" x="343" y="-86.3" font-family="Times,serif" font-size="14.00">Shop</text>
</g>
<!-- User&#45;&gt;Shop -->
<g id="edge4" class="edge"><title>User&#45;&gt;Shop</title>
<path fill="none" stroke="#1a1933" d="M412.17,-161.606C406.618,-155.904 400.577,-149.706 395,-144 384.554,-133.312 372.904,-121.435 363.283,-111.637"/>
<ellipse fill="none" stroke="#1a1933" cx="415.167" cy="-164.685" rx="4.00002" ry="4.00002"/>
<ellipse fill="#1a1933" stroke="#1a1933" cx="360.387" cy="-108.688" rx="4.00002" ry="4.00002"/>
</g>
<!-- Bid -->
<g id="node5" class="node"><title>Bid</title>
<ellipse fill="none" stroke="black" cx="409" cy="-18" rx="27" ry="18"/>
<text text-anchor="middle" x="409" y="-14.3" font-family="Times,serif" font-size="14.00">Bid</text>
</g>
<!-- User&#45;&gt;Bid -->
<g id="edge3" class="edge"><title>User&#45;&gt;Bid</title>
<path fill="none" stroke="#2df10a" d="M427.225,-157.078C424.58,-142.755 421.36,-124.405 419,-108 416.029,-87.3532 413.426,-63.9045 411.621,-46.2607"/>
<ellipse fill="none" stroke="#2df10a" cx="427.97" cy="-161.069" rx="4.00001" ry="4.00001"/>
<polygon fill="#2df10a" stroke="#2df10a" points="411.6,-46.0523 415.081,-35.6537 411.102,-41.0772 410.604,-36.102 410.604,-36.102 410.604,-36.102 411.102,-41.0772 406.126,-36.5503 411.6,-46.0523 411.6,-46.0523"/>
</g>
<!-- Comentari -->
<g id="node6" class="node"><title>Comentari</title>
<ellipse fill="none" stroke="black" cx="519" cy="-18" rx="48.1917" ry="18"/>
<text text-anchor="middle" x="519" y="-14.3" font-family="Times,serif" font-size="14.00">Comentari</text>
</g>
<!-- User&#45;&gt;Comentari -->
<g id="edge2" class="edge"><title>User&#45;&gt;Comentari</title>
<path fill="none" stroke="#383eb3" d="M457.555,-164.879C475.165,-151.58 497.407,-131.483 509,-108 518.494,-88.7696 520.66,-64.4254 520.639,-46.0603"/>
<ellipse fill="none" stroke="#383eb3" cx="454.051" cy="-167.445" rx="4.00002" ry="4.00002"/>
<polygon fill="#383eb3" stroke="#383eb3" points="520.638,-46.0195 524.912,-35.9206 520.525,-41.0208 520.413,-36.022 520.413,-36.022 520.413,-36.022 520.525,-41.0208 515.914,-36.1235 520.638,-46.0195 520.638,-46.0195"/>
</g>
<!-- Anunci -->
<g id="node7" class="node"><title>Anunci</title>
<ellipse fill="none" stroke="black" cx="464" cy="-90" rx="36.2938" ry="18"/>
<text text-anchor="middle" x="464" y="-86.3" font-family="Times,serif" font-size="14.00">Anunci</text>
</g>
<!-- User&#45;&gt;Anunci -->
<g id="edge1" class="edge"><title>User&#45;&gt;Anunci</title>
<path fill="none" stroke="#273973" d="M440.6,-157.543C444.958,-145.152 450.254,-130.09 454.705,-117.432"/>
<ellipse fill="none" stroke="#273973" cx="439.196" cy="-161.536" rx="4.00001" ry="4.00001"/>
<polygon fill="#273973" stroke="#273973" points="454.742,-117.327 462.305,-109.386 456.401,-112.61 458.06,-107.893 458.06,-107.893 458.06,-107.893 456.401,-112.61 453.814,-106.4 454.742,-117.327 454.742,-117.327"/>
</g>
<!-- Anunci&#45;&gt;Bid -->
<g id="edge6" class="edge"><title>Anunci&#45;&gt;Bid</title>
<path fill="none" stroke="#711752" d="M446.29,-66.4602C440.202,-58.7111 433.377,-50.0247 427.246,-42.2223"/>
<ellipse fill="none" stroke="#711752" cx="448.772" cy="-69.6194" rx="4.00002" ry="4.00002"/>
<polygon fill="#711752" stroke="#711752" points="427.112,-42.0522 424.473,-31.4087 424.023,-38.1206 420.934,-34.189 420.934,-34.189 420.934,-34.189 424.023,-38.1206 417.396,-36.9692 427.112,-42.0522 427.112,-42.0522"/>
</g>
<!-- Anunci&#45;&gt;Comentari -->
<g id="edge5" class="edge"><title>Anunci&#45;&gt;Comentari</title>
<path fill="none" stroke="#f24db8" d="M481.72,-66.4478C487.377,-59.2472 493.67,-51.2383 499.45,-43.882"/>
<ellipse fill="none" stroke="#f24db8" cx="479.228" cy="-69.6194" rx="4.00002" ry="4.00002"/>
<polygon fill="#f24db8" stroke="#f24db8" points="499.753,-43.4966 509.469,-38.4136 502.842,-39.565 505.931,-35.6334 505.931,-35.6334 505.931,-35.6334 502.842,-39.565 502.392,-32.8532 499.753,-43.4966 499.753,-43.4966"/>
</g>
</g>
</svg>
