<?xml version="1.0" encoding="UTF-8" standalone="no"?>
<!DOCTYPE svg PUBLIC "-//W3C//DTD SVG 1.1//EN"
 "http://www.w3.org/Graphics/SVG/1.1/DTD/svg11.dtd">
<!-- Generated by graphviz version 2.38.0 (20140413.2041)
 -->
<!-- Title: models_diagram Pages: 1 -->
<svg width="869pt" height="246pt"
 viewBox="0.00 0.00 869.00 246.00" xmlns="http://www.w3.org/2000/svg" xmlns:xlink="http://www.w3.org/1999/xlink">
<g id="graph0" class="graph" transform="scale(1 1) rotate(0) translate(4 242)">
<title>models_diagram</title>
<polygon fill="none" stroke="none" points="-4,4 -4,-242 865,-242 865,4 -4,4"/>
<!-- _diagram_info -->
<g id="node1" class="node"><title>_diagram_info</title>
<text text-anchor="start" x="8" y="-223.6" font-family="Times,serif" font-size="13.00">Models diagram</text>
<text text-anchor="start" x="8" y="-209.6" font-family="Times,serif" font-size="13.00">Date: Jan 11 2018 &#45; 16:10</text>
<text text-anchor="start" x="8" y="-195.6" font-family="Times,serif" font-size="13.00">Migration version: 20171221164058</text>
<text text-anchor="start" x="8" y="-181.6" font-family="Times,serif" font-size="13.00">Generated by RailRoady 1.5.3</text>
<text text-anchor="start" x="8" y="-167.6" font-family="Times,serif" font-size="13.00">http://railroady.prestonlee.com</text>
</g>
<!-- Coupon -->
<g id="node2" class="node"><title>Coupon</title>
<ellipse fill="none" stroke="black" cx="67" cy="-18" rx="38.1938" ry="18"/>
<text text-anchor="middle" x="67" y="-14.3" font-family="Times,serif" font-size="14.00">Coupon</text>
</g>
<!-- ApplicationRecord -->
<g id="node3" class="node"><title>ApplicationRecord</title>
<ellipse fill="none" stroke="black" cx="382" cy="-199" rx="77.1866" ry="18"/>
<text text-anchor="middle" x="382" y="-195.3" font-family="Times,serif" font-size="14.00">ApplicationRecord</text>
</g>
<!-- User -->
<g id="node4" class="node"><title>User</title>
<ellipse fill="none" stroke="black" cx="259" cy="-199" rx="27.0966" ry="18"/>
<text text-anchor="middle" x="259" y="-195.3" font-family="Times,serif" font-size="14.00">User</text>
</g>
<!-- Shop -->
<g id="node8" class="node"><title>Shop</title>
<ellipse fill="none" stroke="black" cx="67" cy="-105" rx="28.6953" ry="18"/>
<text text-anchor="middle" x="67" y="-101.3" font-family="Times,serif" font-size="14.00">Shop</text>
</g>
<!-- User&#45;&gt;Shop -->
<g id="edge4" class="edge"><title>User&#45;&gt;Shop</title>
<path fill="none" stroke="#7af753" d="M242.894,-176.195C237.271,-170.034 230.476,-163.942 223,-160 178.014,-136.282 156.279,-163.084 110,-142 101.589,-138.168 93.5021,-132.227 86.6564,-126.268"/>
<ellipse fill="none" stroke="#7af753" cx="245.51" cy="-179.259" rx="4.00002" ry="4.00002"/>
<ellipse fill="#7af753" stroke="#7af753" cx="83.6938" cy="-123.554" rx="4.00002" ry="4.00002"/>
</g>
<!-- Bid -->
<g id="node9" class="node"><title>Bid</title>
<ellipse fill="none" stroke="black" cx="157" cy="-18" rx="27" ry="18"/>
<text text-anchor="middle" x="157" y="-14.3" font-family="Times,serif" font-size="14.00">Bid</text>
</g>
<!-- User&#45;&gt;Bid -->
<g id="edge3" class="edge"><title>User&#45;&gt;Bid</title>
<path fill="none" stroke="#594928" d="M241.253,-176.435C235.797,-170.63 229.505,-164.672 223,-160 191.181,-137.149 164.1,-156.006 143,-123 127.956,-99.4667 135.952,-66.8205 144.788,-44.4168"/>
<ellipse fill="none" stroke="#594928" cx="244.137" cy="-179.636" rx="4.00002" ry="4.00002"/>
<polygon fill="#594928" stroke="#594928" points="144.789,-44.4128 152.836,-36.9631 146.741,-39.8095 148.693,-35.2063 148.693,-35.2063 148.693,-35.2063 146.741,-39.8095 144.55,-33.4495 144.789,-44.4128 144.789,-44.4128"/>
</g>
<!-- Comentari -->
<g id="node10" class="node"><title>Comentari</title>
<ellipse fill="none" stroke="black" cx="387" cy="-18" rx="48.1917" ry="18"/>
<text text-anchor="middle" x="387" y="-14.3" font-family="Times,serif" font-size="14.00">Comentari</text>
</g>
<!-- User&#45;&gt;Comentari -->
<g id="edge2" class="edge"><title>User&#45;&gt;Comentari</title>
<path fill="none" stroke="#ab74d2" d="M275.716,-176.315C281.502,-170.159 288.449,-164.04 296,-160 375.321,-117.561 437.496,-192.182 495,-123 522.69,-89.6876 468.742,-55.7376 427.594,-36.0557"/>
<ellipse fill="none" stroke="#ab74d2" cx="272.985" cy="-179.407" rx="4.00002" ry="4.00002"/>
<polygon fill="#ab74d2" stroke="#ab74d2" points="427.588,-36.0531 420.413,-27.76 423.053,-33.9472 418.518,-31.8414 418.518,-31.8414 418.518,-31.8414 423.053,-33.9472 416.623,-35.9228 427.588,-36.0531 427.588,-36.0531"/>
</g>
<!-- Evaluation -->
<g id="node11" class="node"><title>Evaluation</title>
<ellipse fill="none" stroke="black" cx="291" cy="-105" rx="48.9926" ry="18"/>
<text text-anchor="middle" x="291" y="-101.3" font-family="Times,serif" font-size="14.00">Evaluation</text>
</g>
<!-- User&#45;&gt;Evaluation -->
<g id="edge6" class="edge"><title>User&#45;&gt;Evaluation</title>
<path fill="none" stroke="#0fa5e3" d="M267.6,-173.274C271.958,-160.747 277.254,-145.52 281.705,-132.723"/>
<ellipse fill="none" stroke="#0fa5e3" cx="266.183" cy="-177.348" rx="4.00001" ry="4.00001"/>
<polygon fill="#0fa5e3" stroke="#0fa5e3" points="281.774,-132.524 289.31,-124.557 283.417,-127.801 285.06,-123.079 285.06,-123.079 285.06,-123.079 283.417,-127.801 280.809,-121.6 281.774,-132.524 281.774,-132.524"/>
</g>
<!-- BoughtCoupon -->
<g id="node12" class="node"><title>BoughtCoupon</title>
<ellipse fill="none" stroke="black" cx="422" cy="-105" rx="64.189" ry="18"/>
<text text-anchor="middle" x="422" y="-101.3" font-family="Times,serif" font-size="14.00">BoughtCoupon</text>
</g>
<!-- User&#45;&gt;BoughtCoupon -->
<g id="edge5" class="edge"><title>User&#45;&gt;BoughtCoupon</title>
<path fill="none" stroke="#af984d" d="M276.956,-176.626C282.627,-170.726 289.2,-164.67 296,-160 319.019,-144.191 347.406,-131.53 371.405,-122.452"/>
<ellipse fill="none" stroke="#af984d" cx="273.897" cy="-179.949" rx="4.00002" ry="4.00002"/>
<polygon fill="#af984d" stroke="#af984d" points="371.663,-122.357 382.602,-123.128 376.356,-120.631 381.049,-118.905 381.049,-118.905 381.049,-118.905 376.356,-120.631 379.495,-114.681 371.663,-122.357 371.663,-122.357"/>
</g>
<!-- Anunci -->
<g id="node13" class="node"><title>Anunci</title>
<ellipse fill="none" stroke="black" cx="188" cy="-105" rx="36.2938" ry="18"/>
<text text-anchor="middle" x="188" y="-101.3" font-family="Times,serif" font-size="14.00">Anunci</text>
</g>
<!-- User&#45;&gt;Anunci -->
<g id="edge1" class="edge"><title>User&#45;&gt;Anunci</title>
<path fill="none" stroke="#108089" d="M241.764,-175.666C231.16,-161.925 217.568,-144.313 206.703,-130.235"/>
<ellipse fill="none" stroke="#108089" cx="244.512" cy="-179.227" rx="4.00002" ry="4.00002"/>
<polygon fill="#108089" stroke="#108089" points="206.452,-129.909 203.904,-119.243 203.397,-125.951 200.342,-121.992 200.342,-121.992 200.342,-121.992 203.397,-125.951 196.779,-124.742 206.452,-129.909 206.452,-129.909"/>
</g>
<!-- Merit::PointRules -->
<g id="node5" class="node"><title>Merit::PointRules</title>
<polygon fill="none" stroke="black" points="591,-217 477,-217 477,-181 591,-181 591,-217"/>
<text text-anchor="middle" x="534" y="-195.3" font-family="Times,serif" font-size="14.00">Merit::PointRules</text>
</g>
<!-- Merit::BadgeRules -->
<g id="node6" class="node"><title>Merit::BadgeRules</title>
<polygon fill="none" stroke="black" points="729,-217 609,-217 609,-181 729,-181 729,-217"/>
<text text-anchor="middle" x="669" y="-195.3" font-family="Times,serif" font-size="14.00">Merit::BadgeRules</text>
</g>
<!-- Merit::RankRules -->
<g id="node7" class="node"><title>Merit::RankRules</title>
<polygon fill="none" stroke="black" points="861,-217 747,-217 747,-181 861,-181 861,-217"/>
<text text-anchor="middle" x="804" y="-195.3" font-family="Times,serif" font-size="14.00">Merit::RankRules</text>
</g>
<!-- Shop&#45;&gt;Coupon -->
<g id="edge7" class="edge"><title>Shop&#45;&gt;Coupon</title>
<path fill="none" stroke="#73d7fe" d="M67,-78.6937C67,-68.5119 67,-56.7466 67,-46.3666"/>
<ellipse fill="none" stroke="#73d7fe" cx="67" cy="-82.799" rx="4" ry="4"/>
<polygon fill="#73d7fe" stroke="#73d7fe" points="67.0001,-46.1754 71.5,-36.1754 67,-41.1754 67,-36.1754 67,-36.1754 67,-36.1754 67,-41.1754 62.5,-36.1755 67.0001,-46.1754 67.0001,-46.1754"/>
</g>
<!-- Anunci&#45;&gt;Bid -->
<g id="edge9" class="edge"><title>Anunci&#45;&gt;Bid</title>
<path fill="none" stroke="#e93c70" d="M213.623,-84.2071C222.15,-75.1584 228.094,-64.2021 222,-54 215.155,-42.5393 203.12,-34.6107 191.251,-29.2372"/>
<ellipse fill="none" stroke="#e93c70" cx="210.632" cy="-87.08" rx="4.00002" ry="4.00002"/>
<polygon fill="#e93c70" stroke="#e93c70" points="191.146,-29.1949 183.553,-21.283 186.508,-27.3259 181.871,-25.4568 181.871,-25.4568 181.871,-25.4568 186.508,-27.3259 180.189,-29.6307 191.146,-29.1949 191.146,-29.1949"/>
</g>
<!-- Anunci&#45;&gt;Bid -->
<g id="edge10" class="edge"><title>Anunci&#45;&gt;Bid</title>
<path fill="none" stroke="#9431ee" d="M163.289,-83.5741C159.499,-79.1907 156.14,-74.2741 154,-69 150.812,-61.1433 150.488,-52.0186 151.308,-43.7312"/>
<ellipse fill="none" stroke="#9431ee" cx="166.291" cy="-86.7065" rx="4.00002" ry="4.00002"/>
<ellipse fill="#9431ee" stroke="#9431ee" cx="151.878" cy="-39.7605" rx="4.00001" ry="4.00001"/>
<text text-anchor="middle" x="186" y="-57.8" font-family="Times,serif" font-size="14.00">selectedBid</text>
</g>
<!-- Anunci&#45;&gt;Comentari -->
<g id="edge8" class="edge"><title>Anunci&#45;&gt;Comentari</title>
<path fill="none" stroke="#905f2f" d="M222.541,-89.2461C257.199,-74.4427 310.533,-51.6618 347.006,-36.083"/>
<ellipse fill="none" stroke="#905f2f" cx="218.517" cy="-90.9653" rx="4.00001" ry="4.00001"/>
<polygon fill="#905f2f" stroke="#905f2f" points="347.158,-36.018 358.122,-36.2282 351.756,-34.0539 356.354,-32.0899 356.354,-32.0899 356.354,-32.0899 351.756,-34.0539 354.587,-27.9516 347.158,-36.018 347.158,-36.018"/>
</g>
</g>
</svg>
