<?xml version="1.0" encoding="UTF-8" standalone="no"?>
<!DOCTYPE svg PUBLIC "-//W3C//DTD SVG 1.1//EN"
 "http://www.w3.org/Graphics/SVG/1.1/DTD/svg11.dtd">
<!-- Generated by graphviz version 2.36.0 (20140111.2315)
 -->
<!-- Title: models_diagram Pages: 1 -->
<svg width="507pt" height="248pt"
 viewBox="0.00 0.00 507.00 248.00" xmlns="http://www.w3.org/2000/svg" xmlns:xlink="http://www.w3.org/1999/xlink">
<g id="graph0" class="graph" transform="scale(1 1) rotate(0) translate(4 244)">
<title>models_diagram</title>
<polygon fill="none" stroke="none" points="-4,4 -4,-244 503,-244 503,4 -4,4"/>
<!-- _diagram_info -->
<g id="node1" class="node"><title>_diagram_info</title>
<text text-anchor="start" x="7" y="-225.6" font-family="Times,serif" font-size="13.00">Models diagram</text>
<text text-anchor="start" x="7" y="-211.6" font-family="Times,serif" font-size="13.00">Date: Dec 11 2017 &#45; 16:10</text>
<text text-anchor="start" x="7" y="-197.6" font-family="Times,serif" font-size="13.00">Migration version: 20171207152751</text>
<text text-anchor="start" x="7" y="-183.6" font-family="Times,serif" font-size="13.00">Generated by RailRoady 1.5.3</text>
<text text-anchor="start" x="7" y="-169.6" font-family="Times,serif" font-size="13.00">http://railroady.prestonlee.com</text>
</g>
<!-- Anunci -->
<g id="node2" class="node"><title>Anunci</title>
<ellipse fill="none" stroke="black" cx="177" cy="-106" rx="36.096" ry="18"/>
<text text-anchor="middle" x="177" y="-102.3" font-family="Times,serif" font-size="14.00">Anunci</text>
</g>
<!-- Comentari -->
<g id="node5" class="node"><title>Comentari</title>
<ellipse fill="none" stroke="black" cx="245" cy="-18" rx="48.1437" ry="18"/>
<text text-anchor="middle" x="245" y="-14.3" font-family="Times,serif" font-size="14.00">Comentari</text>
</g>
<!-- Anunci&#45;&gt;Comentari -->
<g id="edge1" class="edge"><title>Anunci&#45;&gt;Comentari</title>
<path fill="none" stroke="#79d3c8" d="M203.691,-85.5477C209.151,-80.8353 214.573,-75.5446 219,-70 224.883,-62.6314 229.977,-53.7197 234.058,-45.4207"/>
<ellipse fill="none" stroke="#79d3c8" cx="200.41" cy="-88.251" rx="4.00002" ry="4.00002"/>
<polygon fill="#79d3c8" stroke="#79d3c8" points="234.175,-45.1666 242.455,-37.977 236.273,-40.6279 238.37,-36.0891 238.37,-36.0891 238.37,-36.0891 236.273,-40.6279 234.285,-34.2013 234.175,-45.1666 234.175,-45.1666"/>
</g>
<!-- Bid -->
<g id="node9" class="node"><title>Bid</title>
<ellipse fill="none" stroke="black" cx="121" cy="-18" rx="27" ry="18"/>
<text text-anchor="middle" x="121" y="-14.3" font-family="Times,serif" font-size="14.00">Bid</text>
</g>
<!-- Anunci&#45;&gt;Bid -->
<g id="edge2" class="edge"><title>Anunci&#45;&gt;Bid</title>
<path fill="none" stroke="#2863ef" d="M149.115,-85.9061C143.82,-81.2211 138.767,-75.8509 135,-70 130.387,-62.8346 127.279,-54.1613 125.191,-46.0153"/>
<ellipse fill="none" stroke="#2863ef" cx="152.295" cy="-88.5318" rx="4.00002" ry="4.00002"/>
<polygon fill="#2863ef" stroke="#2863ef" points="125.167,-45.9065 127.453,-35.1815 124.111,-41.0194 123.054,-36.1323 123.054,-36.1323 123.054,-36.1323 124.111,-41.0194 118.656,-37.083 125.167,-45.9065 125.167,-45.9065"/>
</g>
<!-- Anunci&#45;&gt;Bid -->
<g id="edge3" class="edge"><title>Anunci&#45;&gt;Bid</title>
<path fill="none" stroke="#72509d" d="M161.707,-81.5139C153.656,-69.151 143.828,-54.0567 135.845,-41.7976"/>
<ellipse fill="none" stroke="#72509d" cx="164.02" cy="-85.0663" rx="4.00002" ry="4.00002"/>
<ellipse fill="#72509d" stroke="#72509d" cx="133.568" cy="-38.3013" rx="4.00002" ry="4.00002"/>
<text text-anchor="middle" x="186" y="-58.3" font-family="Times,serif" font-size="14.00">selectedBid</text>
</g>
<!-- User -->
<g id="node3" class="node"><title>User</title>
<ellipse fill="none" stroke="black" cx="258" cy="-201" rx="26.949" ry="18"/>
<text text-anchor="middle" x="258" y="-197.3" font-family="Times,serif" font-size="14.00">User</text>
</g>
<!-- User&#45;&gt;Anunci -->
<g id="edge4" class="edge"><title>User&#45;&gt;Anunci</title>
<path fill="none" stroke="#fe2fc9" d="M239.411,-178.657C226.911,-164.305 210.425,-145.377 197.537,-130.58"/>
<ellipse fill="none" stroke="#fe2fc9" cx="242.359" cy="-182.042" rx="4.00002" ry="4.00002"/>
<polygon fill="#fe2fc9" stroke="#fe2fc9" points="197.363,-130.38 194.188,-119.883 194.079,-126.609 190.795,-122.839 190.795,-122.839 190.795,-122.839 194.079,-126.609 187.402,-125.794 197.363,-130.38 197.363,-130.38"/>
</g>
<!-- Shop -->
<g id="node4" class="node"><title>Shop</title>
<ellipse fill="none" stroke="black" cx="461" cy="-106" rx="28.3955" ry="18"/>
<text text-anchor="middle" x="461" y="-102.3" font-family="Times,serif" font-size="14.00">Shop</text>
</g>
<!-- User&#45;&gt;Shop -->
<g id="edge7" class="edge"><title>User&#45;&gt;Shop</title>
<path fill="none" stroke="#199541" d="M275.267,-178.492C281.007,-172.455 287.789,-166.358 295,-162 345.787,-131.304 367.35,-144.606 423,-124 425.575,-123.046 428.224,-122.001 430.866,-120.913"/>
<ellipse fill="none" stroke="#199541" cx="272.577" cy="-181.472" rx="4.00002" ry="4.00002"/>
<ellipse fill="#199541" stroke="#199541" cx="435.02" cy="-119.138" rx="4.00001" ry="4.00001"/>
</g>
<!-- User&#45;&gt;Comentari -->
<g id="edge5" class="edge"><title>User&#45;&gt;Comentari</title>
<path fill="none" stroke="#e6c4d0" d="M256.176,-174.611C253.75,-140.823 249.475,-81.3028 246.974,-46.4866"/>
<ellipse fill="none" stroke="#e6c4d0" cx="256.49" cy="-178.982" rx="4" ry="4"/>
<polygon fill="#e6c4d0" stroke="#e6c4d0" points="246.946,-46.089 250.718,-35.7922 246.587,-41.1018 246.229,-36.1146 246.229,-36.1146 246.229,-36.1146 246.587,-41.1018 241.741,-36.4371 246.946,-46.089 246.946,-46.089"/>
</g>
<!-- BoughtCoupon -->
<g id="node6" class="node"><title>BoughtCoupon</title>
<ellipse fill="none" stroke="black" cx="350" cy="-106" rx="64.0172" ry="18"/>
<text text-anchor="middle" x="350" y="-102.3" font-family="Times,serif" font-size="14.00">BoughtCoupon</text>
</g>
<!-- User&#45;&gt;BoughtCoupon -->
<g id="edge8" class="edge"><title>User&#45;&gt;BoughtCoupon</title>
<path fill="none" stroke="#6250e4" d="M277.794,-179.571C283.346,-173.868 289.396,-167.68 295,-162 305.029,-151.837 316.156,-140.686 325.763,-131.098"/>
<ellipse fill="none" stroke="#6250e4" cx="274.799" cy="-182.652" rx="4.00002" ry="4.00002"/>
<polygon fill="#6250e4" stroke="#6250e4" points="326.009,-130.852 336.269,-126.979 329.551,-127.322 333.092,-123.792 333.092,-123.792 333.092,-123.792 329.551,-127.322 329.915,-120.605 326.009,-130.852 326.009,-130.852"/>
</g>
<!-- User&#45;&gt;Bid -->
<g id="edge6" class="edge"><title>User&#45;&gt;Bid</title>
<path fill="none" stroke="#9ec050" d="M240.048,-178.62C234.377,-172.72 227.804,-166.666 221,-162 185.53,-137.674 158.581,-157.813 132,-124 114.789,-102.106 114.133,-69.2145 116.444,-46.0915"/>
<ellipse fill="none" stroke="#9ec050" cx="243.107" cy="-181.944" rx="4.00002" ry="4.00002"/>
<polygon fill="#9ec050" stroke="#9ec050" points="116.474,-45.8463 122.176,-36.4794 117.092,-40.8847 117.711,-35.923 117.711,-35.923 117.711,-35.923 117.092,-40.8847 113.245,-35.3666 116.474,-45.8463 116.474,-45.8463"/>
</g>
<!-- Coupon -->
<g id="node8" class="node"><title>Coupon</title>
<ellipse fill="none" stroke="black" cx="461" cy="-18" rx="38.0212" ry="18"/>
<text text-anchor="middle" x="461" y="-14.3" font-family="Times,serif" font-size="14.00">Coupon</text>
</g>
<!-- Shop&#45;&gt;Coupon -->
<g id="edge9" class="edge"><title>Shop&#45;&gt;Coupon</title>
<path fill="none" stroke="#50a416" d="M461,-79.3391C461,-68.8546 461,-56.7182 461,-46.091"/>
<ellipse fill="none" stroke="#50a416" cx="461" cy="-83.5966" rx="4" ry="4"/>
<polygon fill="#50a416" stroke="#50a416" points="461,-46.084 465.5,-36.084 461,-41.084 461,-36.084 461,-36.084 461,-36.084 461,-41.084 456.5,-36.0841 461,-46.084 461,-46.084"/>
</g>
<!-- ApplicationRecord -->
<g id="node7" class="node"><title>ApplicationRecord</title>
<ellipse fill="none" stroke="black" cx="381" cy="-201" rx="77.0154" ry="18"/>
<text text-anchor="middle" x="381" y="-197.3" font-family="Times,serif" font-size="14.00">ApplicationRecord</text>
</g>
</g>
</svg>
