<?xml version="1.0" encoding="UTF-8" standalone="no"?>
<!DOCTYPE svg PUBLIC "-//W3C//DTD SVG 1.1//EN"
 "http://www.w3.org/Graphics/SVG/1.1/DTD/svg11.dtd">
<!-- Generated by graphviz version 2.38.0 (20140413.2041)
 -->
<!-- Title: models_diagram Pages: 1 -->
<svg width="1038pt" height="657pt"
 viewBox="0.00 0.00 1037.50 657.00" xmlns="http://www.w3.org/2000/svg" xmlns:xlink="http://www.w3.org/1999/xlink">
<g id="graph0" class="graph" transform="scale(1 1) rotate(0) translate(4 653)">
<title>models_diagram</title>
<polygon fill="none" stroke="none" points="-4,4 -4,-653 1033.5,-653 1033.5,4 -4,4"/>
<!-- _diagram_info -->
<g id="node1" class="node"><title>_diagram_info</title>
<text text-anchor="start" x="77.5" y="-567.6" font-family="Times,serif" font-size="13.00">Models diagram</text>
<text text-anchor="start" x="77.5" y="-553.6" font-family="Times,serif" font-size="13.00">Date: Jan 11 2018 &#45; 16:10</text>
<text text-anchor="start" x="77.5" y="-539.6" font-family="Times,serif" font-size="13.00">Migration version: 20171221164058</text>
<text text-anchor="start" x="77.5" y="-525.6" font-family="Times,serif" font-size="13.00">Generated by RailRoady 1.5.3</text>
<text text-anchor="start" x="77.5" y="-511.6" font-family="Times,serif" font-size="13.00">http://railroady.prestonlee.com</text>
</g>
<!-- Coupon -->
<g id="node2" class="node"><title>Coupon</title>
<path fill="none" stroke="black" d="M12,-0.5C12,-0.5 119,-0.5 119,-0.5 125,-0.5 131,-6.5 131,-12.5 131,-12.5 131,-139.5 131,-139.5 131,-145.5 125,-151.5 119,-151.5 119,-151.5 12,-151.5 12,-151.5 6,-151.5 0,-145.5 0,-139.5 0,-139.5 0,-12.5 0,-12.5 0,-6.5 6,-0.5 12,-0.5"/>
<text text-anchor="middle" x="65.5" y="-136.3" font-family="Times,serif" font-size="14.00">Coupon</text>
<polyline fill="none" stroke="black" points="0,-128.5 131,-128.5 "/>
<text text-anchor="start" x="8" y="-113.3" font-family="Times,serif" font-size="14.00">id :INTEGER</text>
<text text-anchor="start" x="8" y="-98.3" font-family="Times,serif" font-size="14.00">title :varchar</text>
<text text-anchor="start" x="8" y="-83.3" font-family="Times,serif" font-size="14.00">description :text</text>
<text text-anchor="start" x="8" y="-68.3" font-family="Times,serif" font-size="14.00">price :integer</text>
<text text-anchor="start" x="8" y="-53.3" font-family="Times,serif" font-size="14.00">created_at :datetime</text>
<text text-anchor="start" x="8" y="-38.3" font-family="Times,serif" font-size="14.00">updated_at :datetime</text>
<text text-anchor="start" x="8" y="-23.3" font-family="Times,serif" font-size="14.00">shop_id :integer</text>
<text text-anchor="start" x="8" y="-8.3" font-family="Times,serif" font-size="14.00">discount :integer</text>
</g>
<!-- ApplicationRecord -->
<g id="node3" class="node"><title>ApplicationRecord</title>
<ellipse fill="none" stroke="black" cx="550.5" cy="-543" rx="77.1866" ry="18"/>
<text text-anchor="middle" x="550.5" y="-539.3" font-family="Times,serif" font-size="14.00">ApplicationRecord</text>
</g>
<!-- User -->
<g id="node4" class="node"><title>User</title>
<path fill="none" stroke="black" d="M313.5,-437.5C313.5,-437.5 443.5,-437.5 443.5,-437.5 449.5,-437.5 455.5,-443.5 455.5,-449.5 455.5,-449.5 455.5,-636.5 455.5,-636.5 455.5,-642.5 449.5,-648.5 443.5,-648.5 443.5,-648.5 313.5,-648.5 313.5,-648.5 307.5,-648.5 301.5,-642.5 301.5,-636.5 301.5,-636.5 301.5,-449.5 301.5,-449.5 301.5,-443.5 307.5,-437.5 313.5,-437.5"/>
<text text-anchor="middle" x="378.5" y="-633.3" font-family="Times,serif" font-size="14.00">User</text>
<polyline fill="none" stroke="black" points="301.5,-625.5 455.5,-625.5 "/>
<text text-anchor="start" x="309.5" y="-610.3" font-family="Times,serif" font-size="14.00">id :INTEGER</text>
<text text-anchor="start" x="309.5" y="-595.3" font-family="Times,serif" font-size="14.00">name :varchar</text>
<text text-anchor="start" x="309.5" y="-580.3" font-family="Times,serif" font-size="14.00">image_url :varchar</text>
<text text-anchor="start" x="309.5" y="-565.3" font-family="Times,serif" font-size="14.00">platform_name :varchar</text>
<text text-anchor="start" x="309.5" y="-550.3" font-family="Times,serif" font-size="14.00">active_token :varchar</text>
<text text-anchor="start" x="309.5" y="-535.3" font-family="Times,serif" font-size="14.00">created_at :datetime</text>
<text text-anchor="start" x="309.5" y="-520.3" font-family="Times,serif" font-size="14.00">updated_at :datetime</text>
<text text-anchor="start" x="309.5" y="-505.3" font-family="Times,serif" font-size="14.00">email :varchar</text>
<text text-anchor="start" x="309.5" y="-490.3" font-family="Times,serif" font-size="14.00">coins :integer</text>
<text text-anchor="start" x="309.5" y="-475.3" font-family="Times,serif" font-size="14.00">sash_id :integer</text>
<text text-anchor="start" x="309.5" y="-460.3" font-family="Times,serif" font-size="14.00">level :integer</text>
<text text-anchor="start" x="309.5" y="-445.3" font-family="Times,serif" font-size="14.00">average_evaluation :float</text>
</g>
<!-- Shop -->
<g id="node8" class="node"><title>Shop</title>
<path fill="none" stroke="black" d="M17,-226C17,-226 124,-226 124,-226 130,-226 136,-232 136,-238 136,-238 136,-365 136,-365 136,-371 130,-377 124,-377 124,-377 17,-377 17,-377 11,-377 5,-371 5,-365 5,-365 5,-238 5,-238 5,-232 11,-226 17,-226"/>
<text text-anchor="middle" x="70.5" y="-361.8" font-family="Times,serif" font-size="14.00">Shop</text>
<polyline fill="none" stroke="black" points="5,-354 136,-354 "/>
<text text-anchor="start" x="13" y="-338.8" font-family="Times,serif" font-size="14.00">id :INTEGER</text>
<text text-anchor="start" x="13" y="-323.8" font-family="Times,serif" font-size="14.00">name :varchar</text>
<text text-anchor="start" x="13" y="-308.8" font-family="Times,serif" font-size="14.00">description :text</text>
<text text-anchor="start" x="13" y="-293.8" font-family="Times,serif" font-size="14.00">latitude :float</text>
<text text-anchor="start" x="13" y="-278.8" font-family="Times,serif" font-size="14.00">longitude :float</text>
<text text-anchor="start" x="13" y="-263.8" font-family="Times,serif" font-size="14.00">created_at :datetime</text>
<text text-anchor="start" x="13" y="-248.8" font-family="Times,serif" font-size="14.00">updated_at :datetime</text>
<text text-anchor="start" x="13" y="-233.8" font-family="Times,serif" font-size="14.00">user_id :integer</text>
</g>
<!-- User&#45;&gt;Shop -->
<g id="edge4" class="edge"><title>User&#45;&gt;Shop</title>
<path fill="none" stroke="#bd751f" d="M294.447,-438.117C293.801,-437.738 293.152,-437.365 292.5,-437 241.225,-408.282 212.439,-448.309 161.5,-419 145.971,-410.065 132.144,-397.34 120.246,-383.557"/>
<ellipse fill="none" stroke="#bd751f" cx="297.876" cy="-440.289" rx="4.00002" ry="4.00002"/>
<ellipse fill="#bd751f" stroke="#bd751f" cx="117.477" cy="-380.232" rx="4.00002" ry="4.00002"/>
</g>
<!-- Bid -->
<g id="node9" class="node"><title>Bid</title>
<path fill="none" stroke="black" d="M161,-8C161,-8 268,-8 268,-8 274,-8 280,-14 280,-20 280,-20 280,-132 280,-132 280,-138 274,-144 268,-144 268,-144 161,-144 161,-144 155,-144 149,-138 149,-132 149,-132 149,-20 149,-20 149,-14 155,-8 161,-8"/>
<text text-anchor="middle" x="214.5" y="-128.8" font-family="Times,serif" font-size="14.00">Bid</text>
<polyline fill="none" stroke="black" points="149,-121 280,-121 "/>
<text text-anchor="start" x="157" y="-105.8" font-family="Times,serif" font-size="14.00">id :INTEGER</text>
<text text-anchor="start" x="157" y="-90.8" font-family="Times,serif" font-size="14.00">anunci_id :integer</text>
<text text-anchor="start" x="157" y="-75.8" font-family="Times,serif" font-size="14.00">user_id :integer</text>
<text text-anchor="start" x="157" y="-60.8" font-family="Times,serif" font-size="14.00">amount :integer</text>
<text text-anchor="start" x="157" y="-45.8" font-family="Times,serif" font-size="14.00">created_at :datetime</text>
<text text-anchor="start" x="157" y="-30.8" font-family="Times,serif" font-size="14.00">updated_at :datetime</text>
<text text-anchor="start" x="157" y="-15.8" font-family="Times,serif" font-size="14.00">accepted :boolean</text>
</g>
<!-- User&#45;&gt;Bid -->
<g id="edge3" class="edge"><title>User&#45;&gt;Bid</title>
<path fill="none" stroke="#05f2e7" d="M294.717,-438.621C293.981,-438.073 293.242,-437.533 292.5,-437 254.684,-409.844 220.976,-438.296 194.5,-400 144.76,-328.054 162.912,-224.164 184.777,-153.787"/>
<ellipse fill="none" stroke="#05f2e7" cx="298.113" cy="-441.282" rx="4.00002" ry="4.00002"/>
<polygon fill="#05f2e7" stroke="#05f2e7" points="184.833,-153.611 192.166,-145.457 186.357,-148.848 187.88,-144.086 187.88,-144.086 187.88,-144.086 186.357,-148.848 183.594,-142.715 184.833,-153.611 184.833,-153.611"/>
</g>
<!-- Comentari -->
<g id="node10" class="node"><title>Comentari</title>
<path fill="none" stroke="black" d="M456,-8C456,-8 563,-8 563,-8 569,-8 575,-14 575,-20 575,-20 575,-132 575,-132 575,-138 569,-144 563,-144 563,-144 456,-144 456,-144 450,-144 444,-138 444,-132 444,-132 444,-20 444,-20 444,-14 450,-8 456,-8"/>
<text text-anchor="middle" x="509.5" y="-128.8" font-family="Times,serif" font-size="14.00">Comentari</text>
<polyline fill="none" stroke="black" points="444,-121 575,-121 "/>
<text text-anchor="start" x="452" y="-105.8" font-family="Times,serif" font-size="14.00">id :INTEGER</text>
<text text-anchor="start" x="452" y="-90.8" font-family="Times,serif" font-size="14.00">text :text</text>
<text text-anchor="start" x="452" y="-75.8" font-family="Times,serif" font-size="14.00">user_id :integer</text>
<text text-anchor="start" x="452" y="-60.8" font-family="Times,serif" font-size="14.00">anunci_id :integer</text>
<text text-anchor="start" x="452" y="-45.8" font-family="Times,serif" font-size="14.00">created_at :datetime</text>
<text text-anchor="start" x="452" y="-30.8" font-family="Times,serif" font-size="14.00">updated_at :datetime</text>
<text text-anchor="start" x="452" y="-15.8" font-family="Times,serif" font-size="14.00">reward :integer</text>
</g>
<!-- User&#45;&gt;Comentari -->
<g id="edge2" class="edge"><title>User&#45;&gt;Comentari</title>
<path fill="none" stroke="#e9f8e5" d="M462.248,-438.407C462.995,-437.929 463.746,-437.46 464.5,-437 531.63,-396.062 588.056,-461.136 637.5,-400 692.558,-331.922 671.324,-283.758 637.5,-203 625.862,-175.214 604.779,-150.455 583.037,-130.396"/>
<ellipse fill="none" stroke="#e9f8e5" cx="458.928" cy="-440.675" rx="4.00002" ry="4.00002"/>
<polygon fill="#e9f8e5" stroke="#e9f8e5" points="582.784,-130.169 578.334,-120.147 579.058,-126.835 575.333,-123.5 575.333,-123.5 575.333,-123.5 579.058,-126.835 572.331,-126.852 582.784,-130.169 582.784,-130.169"/>
</g>
<!-- Evaluation -->
<g id="node11" class="node"><title>Evaluation</title>
<path fill="none" stroke="black" d="M376,-256C376,-256 467,-256 467,-256 473,-256 479,-262 479,-268 479,-268 479,-335 479,-335 479,-341 473,-347 467,-347 467,-347 376,-347 376,-347 370,-347 364,-341 364,-335 364,-335 364,-268 364,-268 364,-262 370,-256 376,-256"/>
<text text-anchor="middle" x="421.5" y="-331.8" font-family="Times,serif" font-size="14.00">Evaluation</text>
<polyline fill="none" stroke="black" points="364,-324 479,-324 "/>
<text text-anchor="start" x="372" y="-308.8" font-family="Times,serif" font-size="14.00">id :INTEGER</text>
<text text-anchor="start" x="372" y="-293.8" font-family="Times,serif" font-size="14.00">score :integer</text>
<text text-anchor="start" x="372" y="-278.8" font-family="Times,serif" font-size="14.00">user_id :integer</text>
<text text-anchor="start" x="372" y="-263.8" font-family="Times,serif" font-size="14.00">anunci_id :integer</text>
</g>
<!-- User&#45;&gt;Evaluation -->
<g id="edge6" class="edge"><title>User&#45;&gt;Evaluation</title>
<path fill="none" stroke="#9e64ab" d="M398.765,-429.129C403.266,-404.059 407.84,-378.585 411.693,-357.122"/>
<ellipse fill="none" stroke="#9e64ab" cx="398.005" cy="-433.363" rx="4.00001" ry="4.00001"/>
<polygon fill="#9e64ab" stroke="#9e64ab" points="411.699,-357.087 417.896,-348.04 412.583,-352.166 413.467,-347.245 413.467,-347.245 413.467,-347.245 412.583,-352.166 409.037,-346.449 411.699,-357.087 411.699,-357.087"/>
</g>
<!-- BoughtCoupon -->
<g id="node12" class="node"><title>BoughtCoupon</title>
<path fill="none" stroke="black" d="M509,-226C509,-226 616,-226 616,-226 622,-226 628,-232 628,-238 628,-238 628,-365 628,-365 628,-371 622,-377 616,-377 616,-377 509,-377 509,-377 503,-377 497,-371 497,-365 497,-365 497,-238 497,-238 497,-232 503,-226 509,-226"/>
<text text-anchor="middle" x="562.5" y="-361.8" font-family="Times,serif" font-size="14.00">BoughtCoupon</text>
<polyline fill="none" stroke="black" points="497,-354 628,-354 "/>
<text text-anchor="start" x="505" y="-338.8" font-family="Times,serif" font-size="14.00">id :INTEGER</text>
<text text-anchor="start" x="505" y="-323.8" font-family="Times,serif" font-size="14.00">title :varchar</text>
<text text-anchor="start" x="505" y="-308.8" font-family="Times,serif" font-size="14.00">description :text</text>
<text text-anchor="start" x="505" y="-293.8" font-family="Times,serif" font-size="14.00">discount :integer</text>
<text text-anchor="start" x="505" y="-278.8" font-family="Times,serif" font-size="14.00">user_id :integer</text>
<text text-anchor="start" x="505" y="-263.8" font-family="Times,serif" font-size="14.00">created_at :datetime</text>
<text text-anchor="start" x="505" y="-248.8" font-family="Times,serif" font-size="14.00">updated_at :datetime</text>
<text text-anchor="start" x="505" y="-233.8" font-family="Times,serif" font-size="14.00">shop_id :integer</text>
</g>
<!-- User&#45;&gt;BoughtCoupon -->
<g id="edge5" class="edge"><title>User&#45;&gt;BoughtCoupon</title>
<path fill="none" stroke="#3dc537" d="M460.496,-436.388C469.957,-424.133 479.451,-411.801 488.5,-400 492.234,-395.131 496.067,-390.119 499.929,-385.06"/>
<ellipse fill="none" stroke="#3dc537" cx="458" cy="-439.621" rx="4.00002" ry="4.00002"/>
<polygon fill="#3dc537" stroke="#3dc537" points="499.948,-385.035 509.59,-379.813 502.98,-381.059 506.012,-377.084 506.012,-377.084 506.012,-377.084 502.98,-381.059 502.434,-374.355 499.948,-385.035 499.948,-385.035"/>
</g>
<!-- Anunci -->
<g id="node13" class="node"><title>Anunci</title>
<path fill="none" stroke="black" d="M215.5,-203.5C215.5,-203.5 333.5,-203.5 333.5,-203.5 339.5,-203.5 345.5,-209.5 345.5,-215.5 345.5,-215.5 345.5,-387.5 345.5,-387.5 345.5,-393.5 339.5,-399.5 333.5,-399.5 333.5,-399.5 215.5,-399.5 215.5,-399.5 209.5,-399.5 203.5,-393.5 203.5,-387.5 203.5,-387.5 203.5,-215.5 203.5,-215.5 203.5,-209.5 209.5,-203.5 215.5,-203.5"/>
<text text-anchor="middle" x="274.5" y="-384.3" font-family="Times,serif" font-size="14.00">Anunci</text>
<polyline fill="none" stroke="black" points="203.5,-376.5 345.5,-376.5 "/>
<text text-anchor="start" x="211.5" y="-361.3" font-family="Times,serif" font-size="14.00">id :INTEGER</text>
<text text-anchor="start" x="211.5" y="-346.3" font-family="Times,serif" font-size="14.00">title :varchar</text>
<text text-anchor="start" x="211.5" y="-331.3" font-family="Times,serif" font-size="14.00">description :text</text>
<text text-anchor="start" x="211.5" y="-316.3" font-family="Times,serif" font-size="14.00">latitude :float</text>
<text text-anchor="start" x="211.5" y="-301.3" font-family="Times,serif" font-size="14.00">longitude :float</text>
<text text-anchor="start" x="211.5" y="-286.3" font-family="Times,serif" font-size="14.00">reward :integer</text>
<text text-anchor="start" x="211.5" y="-271.3" font-family="Times,serif" font-size="14.00">user_id :integer</text>
<text text-anchor="start" x="211.5" y="-256.3" font-family="Times,serif" font-size="14.00">created_at :datetime</text>
<text text-anchor="start" x="211.5" y="-241.3" font-family="Times,serif" font-size="14.00">updated_at :datetime</text>
<text text-anchor="start" x="211.5" y="-226.3" font-family="Times,serif" font-size="14.00">status :varchar</text>
<text text-anchor="start" x="211.5" y="-211.3" font-family="Times,serif" font-size="14.00">selectedBid_id :integer</text>
</g>
<!-- User&#45;&gt;Anunci -->
<g id="edge1" class="edge"><title>User&#45;&gt;Anunci</title>
<path fill="none" stroke="#0ef22a" d="M329.728,-429.684C326.748,-422.82 323.753,-415.924 320.784,-409.086"/>
<ellipse fill="none" stroke="#0ef22a" cx="331.442" cy="-433.631" rx="4.00002" ry="4.00002"/>
<polygon fill="#0ef22a" stroke="#0ef22a" points="320.737,-408.978 320.881,-398.013 318.745,-404.391 316.754,-399.805 316.754,-399.805 316.754,-399.805 318.745,-404.391 312.626,-401.598 320.737,-408.978 320.737,-408.978"/>
</g>
<!-- Merit::PointRules -->
<g id="node5" class="node"><title>Merit::PointRules</title>
<polygon fill="none" stroke="black" points="645.5,-520 645.5,-566 759.5,-566 759.5,-520 645.5,-520"/>
<text text-anchor="middle" x="702.5" y="-550.8" font-family="Times,serif" font-size="14.00">Merit::PointRules</text>
<polyline fill="none" stroke="black" points="645.5,-543 759.5,-543 "/>
<text text-anchor="middle" x="702.5" y="-527.8" font-family="Times,serif" font-size="14.00"> </text>
</g>
<!-- Merit::BadgeRules -->
<g id="node6" class="node"><title>Merit::BadgeRules</title>
<polygon fill="none" stroke="black" points="777.5,-520 777.5,-566 897.5,-566 897.5,-520 777.5,-520"/>
<text text-anchor="middle" x="837.5" y="-550.8" font-family="Times,serif" font-size="14.00">Merit::BadgeRules</text>
<polyline fill="none" stroke="black" points="777.5,-543 897.5,-543 "/>
<text text-anchor="middle" x="837.5" y="-527.8" font-family="Times,serif" font-size="14.00"> </text>
</g>
<!-- Merit::RankRules -->
<g id="node7" class="node"><title>Merit::RankRules</title>
<polygon fill="none" stroke="black" points="915.5,-520 915.5,-566 1029.5,-566 1029.5,-520 915.5,-520"/>
<text text-anchor="middle" x="972.5" y="-550.8" font-family="Times,serif" font-size="14.00">Merit::RankRules</text>
<polyline fill="none" stroke="black" points="915.5,-543 1029.5,-543 "/>
<text text-anchor="middle" x="972.5" y="-527.8" font-family="Times,serif" font-size="14.00"> </text>
</g>
<!-- Shop&#45;&gt;Coupon -->
<g id="edge7" class="edge"><title>Shop&#45;&gt;Coupon</title>
<path fill="none" stroke="#858b84" d="M68.6447,-217.569C68.2369,-199.338 67.8045,-180.009 67.3951,-161.71"/>
<ellipse fill="none" stroke="#858b84" cx="68.7386" cy="-221.768" rx="4" ry="4"/>
<polygon fill="#858b84" stroke="#858b84" points="67.3941,-161.66 71.6692,-151.562 67.2822,-156.661 67.1703,-151.663 67.1703,-151.663 67.1703,-151.663 67.2822,-156.661 62.6714,-151.763 67.3941,-161.66 67.3941,-161.66"/>
</g>
<!-- Anunci&#45;&gt;Bid -->
<g id="edge9" class="edge"><title>Anunci&#45;&gt;Bid</title>
<path fill="none" stroke="#655e1e" d="M281.767,-195.364C280.662,-186.69 278.963,-178.136 276.5,-170 274.789,-164.349 272.609,-158.727 270.095,-153.207"/>
<ellipse fill="none" stroke="#655e1e" cx="282.195" cy="-199.379" rx="4" ry="4"/>
<polygon fill="#655e1e" stroke="#655e1e" points="269.992,-152.998 269.61,-142.039 267.783,-148.513 265.573,-144.027 265.573,-144.027 265.573,-144.027 267.783,-148.513 261.536,-146.016 269.992,-152.998 269.992,-152.998"/>
</g>
<!-- Anunci&#45;&gt;Bid -->
<g id="edge10" class="edge"><title>Anunci&#45;&gt;Bid</title>
<path fill="none" stroke="#8da03f" d="M211.719,-195.646C210.522,-192.102 209.442,-188.549 208.5,-185 205.727,-174.557 204.503,-163.354 204.273,-152.258"/>
<ellipse fill="none" stroke="#8da03f" cx="213.157" cy="-199.622" rx="4.00001" ry="4.00001"/>
<ellipse fill="#8da03f" stroke="#8da03f" cx="204.273" cy="-148.21" rx="4" ry="4"/>
<text text-anchor="middle" x="240.5" y="-173.8" font-family="Times,serif" font-size="14.00">selectedBid</text>
</g>
<!-- Anunci&#45;&gt;Comentari -->
<g id="edge8" class="edge"><title>Anunci&#45;&gt;Comentari</title>
<path fill="none" stroke="#936fda" d="M351.501,-207.025C352.834,-205.665 354.168,-204.323 355.5,-203 380.275,-178.41 409.485,-153.602 435.769,-132.578"/>
<ellipse fill="none" stroke="#936fda" cx="348.436" cy="-210.209" rx="4.00002" ry="4.00002"/>
<polygon fill="#936fda" stroke="#936fda" points="435.994,-132.399 446.623,-129.703 439.909,-129.289 443.824,-126.179 443.824,-126.179 443.824,-126.179 439.909,-129.289 441.025,-122.656 435.994,-132.399 435.994,-132.399"/>
</g>
</g>
</svg>
