<?xml version="1.0" encoding="UTF-8" standalone="no"?>
<!DOCTYPE svg PUBLIC "-//W3C//DTD SVG 1.1//EN"
 "http://www.w3.org/Graphics/SVG/1.1/DTD/svg11.dtd">
<!-- Generated by graphviz version 2.36.0 (20140111.2315)
 -->
<!-- Title: models_diagram Pages: 1 -->
<svg width="466pt" height="230pt"
 viewBox="0.00 0.00 466.00 230.00" xmlns="http://www.w3.org/2000/svg" xmlns:xlink="http://www.w3.org/1999/xlink">
<g id="graph0" class="graph" transform="scale(1 1) rotate(0) translate(4 226)">
<title>models_diagram</title>
<polygon fill="none" stroke="none" points="-4,4 -4,-226 462,-226 462,4 -4,4"/>
<!-- _diagram_info -->
<g id="node1" class="node"><title>_diagram_info</title>
<text text-anchor="start" x="7" y="-207.6" font-family="Times,serif" font-size="13.00">Models diagram</text>
<text text-anchor="start" x="7" y="-193.6" font-family="Times,serif" font-size="13.00">Date: Nov 17 2017 &#45; 13:38</text>
<text text-anchor="start" x="7" y="-179.6" font-family="Times,serif" font-size="13.00">Migration version: 20171116195445</text>
<text text-anchor="start" x="7" y="-165.6" font-family="Times,serif" font-size="13.00">Generated by RailRoady 1.5.3</text>
<text text-anchor="start" x="7" y="-151.6" font-family="Times,serif" font-size="13.00">http://railroady.prestonlee.com</text>
</g>
<!-- Anunci -->
<g id="node2" class="node"><title>Anunci</title>
<ellipse fill="none" stroke="black" cx="226" cy="-90" rx="36.096" ry="18"/>
<text text-anchor="middle" x="226" y="-86.3" font-family="Times,serif" font-size="14.00">Anunci</text>
</g>
<!-- Comentari -->
<g id="node4" class="node"><title>Comentari</title>
<ellipse fill="none" stroke="black" cx="258" cy="-18" rx="48.1437" ry="18"/>
<text text-anchor="middle" x="258" y="-14.3" font-family="Times,serif" font-size="14.00">Comentari</text>
</g>
<!-- Anunci&#45;&gt;Comentari -->
<g id="edge1" class="edge"><title>Anunci&#45;&gt;Comentari</title>
<path fill="none" stroke="#8617ef" d="M237.102,-64.7144C239.965,-58.4507 243.06,-51.6804 245.969,-45.3185"/>
<ellipse fill="none" stroke="#8617ef" cx="235.409" cy="-68.4171" rx="4.00002" ry="4.00002"/>
<polygon fill="#8617ef" stroke="#8617ef" points="246.167,-44.8838 254.418,-37.6599 248.246,-40.3364 250.325,-35.789 250.325,-35.789 250.325,-35.789 248.246,-40.3364 246.232,-33.9181 246.167,-44.8838 246.167,-44.8838"/>
</g>
<!-- User -->
<g id="node3" class="node"><title>User</title>
<ellipse fill="none" stroke="black" cx="258" cy="-183" rx="26.949" ry="18"/>
<text text-anchor="middle" x="258" y="-179.3" font-family="Times,serif" font-size="14.00">User</text>
</g>
<!-- User&#45;&gt;Anunci -->
<g id="edge2" class="edge"><title>User&#45;&gt;Anunci</title>
<path fill="none" stroke="#e16339" d="M249.4,-157.543C245.042,-145.152 239.746,-130.09 235.295,-117.432"/>
<ellipse fill="none" stroke="#e16339" cx="250.804" cy="-161.536" rx="4.00001" ry="4.00001"/>
<polygon fill="#e16339" stroke="#e16339" points="235.258,-117.327 236.186,-106.4 233.599,-112.61 231.94,-107.893 231.94,-107.893 231.94,-107.893 233.599,-112.61 227.695,-109.386 235.258,-117.327 235.258,-117.327"/>
</g>
<!-- User&#45;&gt;Comentari -->
<g id="edge3" class="edge"><title>User&#45;&gt;Comentari</title>
<path fill="none" stroke="#a19a24" d="M264.296,-157.269C269.169,-134.972 274.539,-101.286 271,-72 269.961,-63.4026 268.007,-54.1878 265.923,-45.8926"/>
<ellipse fill="none" stroke="#a19a24" cx="263.366" cy="-161.326" rx="4.00001" ry="4.00001"/>
<polygon fill="#a19a24" stroke="#a19a24" points="265.859,-45.6528 267.621,-34.8294 264.566,-40.8228 263.274,-35.9927 263.274,-35.9927 263.274,-35.9927 264.566,-40.8228 258.927,-37.156 265.859,-45.6528 265.859,-45.6528"/>
</g>
<!-- ApplicationRecord -->
<g id="node5" class="node"><title>ApplicationRecord</title>
<ellipse fill="none" stroke="black" cx="381" cy="-183" rx="77.0154" ry="18"/>
<text text-anchor="middle" x="381" y="-179.3" font-family="Times,serif" font-size="14.00">ApplicationRecord</text>
</g>
</g>
</svg>
