<?xml version="1.0" encoding="UTF-8" standalone="no"?>
<!DOCTYPE svg PUBLIC "-//W3C//DTD SVG 1.1//EN"
 "http://www.w3.org/Graphics/SVG/1.1/DTD/svg11.dtd">
<!-- Generated by graphviz version 2.36.0 (20140111.2315)
 -->
<!-- Title: models_diagram Pages: 1 -->
<svg width="560pt" height="160pt"
 viewBox="0.00 0.00 560.00 160.00" xmlns="http://www.w3.org/2000/svg" xmlns:xlink="http://www.w3.org/1999/xlink">
<g id="graph0" class="graph" transform="scale(1 1) rotate(0) translate(4 156)">
<title>models_diagram</title>
<polygon fill="none" stroke="none" points="-4,4 -4,-156 556,-156 556,4 -4,4"/>
<!-- _diagram_info -->
<g id="node1" class="node"><title>_diagram_info</title>
<text text-anchor="start" x="7" y="-100.6" font-family="Times,serif" font-size="13.00">Models diagram</text>
<text text-anchor="start" x="7" y="-86.6" font-family="Times,serif" font-size="13.00">Date: Oct 27 2017 &#45; 12:57</text>
<text text-anchor="start" x="7" y="-72.6" font-family="Times,serif" font-size="13.00">Migration version: 20171020123135</text>
<text text-anchor="start" x="7" y="-58.6" font-family="Times,serif" font-size="13.00">Generated by RailRoady 1.5.3</text>
<text text-anchor="start" x="7" y="-44.6" font-family="Times,serif" font-size="13.00">http://railroady.prestonlee.com</text>
</g>
<!-- User -->
<g id="node2" class="node"><title>User</title>
<path fill="none" stroke="black" d="M242.5,-0.5C242.5,-0.5 367.5,-0.5 367.5,-0.5 373.5,-0.5 379.5,-6.5 379.5,-12.5 379.5,-12.5 379.5,-139.5 379.5,-139.5 379.5,-145.5 373.5,-151.5 367.5,-151.5 367.5,-151.5 242.5,-151.5 242.5,-151.5 236.5,-151.5 230.5,-145.5 230.5,-139.5 230.5,-139.5 230.5,-12.5 230.5,-12.5 230.5,-6.5 236.5,-0.5 242.5,-0.5"/>
<text text-anchor="middle" x="305" y="-136.3" font-family="Times,serif" font-size="14.00">User</text>
<polyline fill="none" stroke="black" points="230.5,-128.5 379.5,-128.5 "/>
<text text-anchor="start" x="238.5" y="-113.3" font-family="Times,serif" font-size="14.00">id :INTEGER</text>
<text text-anchor="start" x="238.5" y="-98.3" font-family="Times,serif" font-size="14.00">name :varchar</text>
<text text-anchor="start" x="238.5" y="-83.3" font-family="Times,serif" font-size="14.00">image_url :varchar</text>
<text text-anchor="start" x="238.5" y="-68.3" font-family="Times,serif" font-size="14.00">platform_name :varchar</text>
<text text-anchor="start" x="238.5" y="-53.3" font-family="Times,serif" font-size="14.00">active_token :varchar</text>
<text text-anchor="start" x="238.5" y="-38.3" font-family="Times,serif" font-size="14.00">created_at :datetime</text>
<text text-anchor="start" x="238.5" y="-23.3" font-family="Times,serif" font-size="14.00">updated_at :datetime</text>
<text text-anchor="start" x="238.5" y="-8.3" font-family="Times,serif" font-size="14.00">email :varchar</text>
</g>
<!-- ApplicationRecord -->
<g id="node3" class="node"><title>ApplicationRecord</title>
<ellipse fill="none" stroke="black" cx="475" cy="-76" rx="77.0154" ry="18"/>
<text text-anchor="middle" x="475" y="-72.3" font-family="Times,serif" font-size="14.00">ApplicationRecord</text>
</g>
</g>
</svg>
